<svg xmlns="http://www.w3.org/2000/svg" width="205" height="205" fill="none" viewBox="0 0 205 205">
    <g clip-path="url(#clip0)" opacity=".8">
        <path fill="#BC95E2" d="M69.724 69.722c4.19-4.19 2.045-19.063 2.045-19.063s-.904-54.15-22.97-47.01c-11.17 3.616-8.952 14.58-5.035 23.268-7.254-3.452-13.795-3.865-17.252-.407-3.457 3.457-3.044 9.997.407 17.252-8.687-3.917-19.652-6.135-23.267 5.035-7.14 22.066 47.009 22.97 47.009 22.97s14.873 2.145 19.063-2.045zM135.277 135.274c4.19-4.19 19.064-2.044 19.064-2.044s54.149.904 47.008 22.969c-3.615 11.17-14.58 8.953-23.268 5.035 3.453 7.255 3.865 13.795.408 17.253-3.457 3.457-9.998 3.044-17.252-.408 3.917 8.688 6.135 19.653-5.035 23.267-22.066 7.141-22.97-47.008-22.97-47.008s-2.146-14.874 2.045-19.064z"/>
        <path fill="#AC80DD" d="M69.724 69.721c-4.19 4.19-19.064 2.044-19.064 2.044s-54.148-.901-47.007-22.967c2.334-7.207 7.721-8.84 13.585-8.04C24.212 53.56 56.395 66.03 56.395 66.03s11.417 5.603 13.329 3.691zM156.201 201.345c-22.066 7.141-22.967-47.007-22.967-47.007s-2.147-14.873 2.044-19.063c-1.912 1.911 3.69 13.329 3.69 13.329s12.471 32.183 25.272 39.157c.801 5.864-.832 11.251-8.039 13.584z"/>
        <path fill="#F9EFDA" d="M165.917 87.939c-15.548-17.024-31.834-33.31-48.857-48.857-14.023-12.807-35.524-12.934-49.64-.23-10.025 9.02-19.547 18.541-28.567 28.566-12.702 14.116-12.576 35.617.23 49.64 15.548 17.023 31.834 33.309 48.858 48.857 14.022 12.807 35.523 12.933 49.64.23 10.024-9.02 19.546-18.542 28.566-28.566 12.703-14.117 12.577-35.618-.23-49.64z"/>
        <path fill="#F6E4C1" d="M144.526 159.735c-2.288 2.167-4.601 4.302-6.943 6.409-14.118 12.706-35.618 12.577-49.642-.229-17.022-15.548-33.307-31.833-48.855-48.855-12.806-14.024-12.936-35.524-.23-49.642 2.107-2.342 4.242-4.656 6.41-6.943-1.645 11.885 1.87 24.35 10.496 33.796 17.493 19.152 35.816 37.475 54.968 54.969 9.446 8.624 21.911 12.14 33.796 10.495z"/>
        <path fill="#BC95E2" d="M146.147 67.095c-7.276 2.127-41.945 13.025-80.321 38.004-7.497 4.879-15.137 10.298-22.743 16.296-1.34-1.438-2.672-2.884-3.998-4.336-6.156-6.742-9.382-15.209-9.661-23.76 6.093-4.474 12.17-8.587 18.136-12.36 36.213-22.896 68.419-33.237 76.297-35.57 7.58 7.091 15.011 14.333 22.29 21.726zM175.5 115.62c-15.12 5.58-39.448 15.998-65.534 32.918-7.586 4.922-15.324 10.393-23.024 16.457-7.626-6.989-15.103-14.121-22.427-21.411 7.657-6.056 15.349-11.527 22.903-16.452 37.005-24.141 70.62-35.19 79.629-37.897 6.306 7.58 9.133 17.089 8.453 26.385z"/>
        <path fill="#AC80DD" d="M55.76 94.27c3.324 3.639 6.68 7.252 10.066 10.828-7.497 4.88-15.137 10.298-22.743 16.297-1.34-1.438-2.672-2.884-3.998-4.337-6.156-6.741-9.382-15.208-9.661-23.758 6.093-4.475 12.17-8.588 18.136-12.362 1.817 4.802 4.55 9.336 8.2 13.331zM109.966 148.538c-7.586 4.922-15.324 10.393-23.024 16.457-7.626-6.989-15.103-14.121-22.427-21.411 7.657-6.056 15.349-11.526 22.903-16.452 7.382 7.268 14.899 14.406 22.548 21.406z"/>
        <path fill="#FFE07D" d="M168.854 36.81l-.666-.665c-2.349-2.349-2.478-6.115-.295-8.62l6.713-7.701c2.405-2.759 6.642-2.904 9.23-.316l1.655 1.655c2.588 2.587 2.442 6.825-.316 9.23l-7.702 6.713c-2.504 2.182-6.27 2.053-8.619-.295zM146.614 25.694l-.91-.244c-3.208-.86-5.203-4.056-4.565-7.316l1.963-10.027c.703-3.591 4.3-5.836 7.835-4.889l2.261.606c3.535.947 5.528 4.69 4.341 8.152l-3.313 9.664c-1.078 3.142-4.404 4.914-7.612 4.054zM179.548 59.294l-.243-.91c-.86-3.208.911-6.534 4.053-7.611l9.665-3.314c3.461-1.186 7.204.807 8.152 4.342l.605 2.26c.948 3.535-1.297 7.133-4.889 7.836l-10.026 1.963c-3.26.638-6.457-1.357-7.317-4.566zM36.147 168.186l.666.666c2.349 2.348 2.478 6.115.295 8.619l-6.713 7.701c-2.404 2.759-6.642 2.905-9.23.317l-1.655-1.655c-2.587-2.588-2.442-6.826.317-9.23l7.701-6.713c2.504-2.183 6.27-2.054 8.62.295zM58.387 179.302l.91.244c3.208.86 5.203 4.057 4.565 7.317L61.9 196.889c-.704 3.592-4.301 5.836-7.836 4.889l-2.26-.605c-3.536-.948-5.529-4.691-4.342-8.152l3.313-9.665c1.078-3.142 4.404-4.913 7.612-4.054zM25.453 145.702l.244.91c.86 3.208-.912 6.534-4.054 7.611l-9.665 3.314c-3.461 1.187-7.204-.806-8.152-4.341l-.605-2.261c-.948-3.535 1.297-7.133 4.889-7.836l10.027-1.962c3.259-.638 6.456 1.357 7.316 4.565z"/>
        <path fill="#000" d="M202.928 145.306c-4.026-6.338-13.843-10.792-29.207-13.264 3.212-5.875 4.909-12.509 4.875-19.334-.05-9.942-3.767-19.457-10.465-26.792-15.538-17.01-32.04-33.512-49.049-49.049-7.335-6.698-16.851-10.415-26.793-10.465-6.836-.042-13.465 1.659-19.337 4.873-.76-4.698-1.72-8.937-2.868-12.641-.491-1.584-2.173-2.47-3.757-1.98-1.584.491-2.47 2.173-1.98 3.757 1.279 4.127 2.311 9.011 3.081 14.528-.686.54-1.363 1.097-2.017 1.686-10.053 9.049-19.737 18.733-28.785 28.785-.59.655-1.146 1.332-1.687 2.02-14.763-2.063-24.605-5.932-27.797-10.959-1.253-1.971-1.458-4.178-.628-6.745.896-2.766 2.305-4.542 4.312-5.431 3.286-1.457 8.427-.693 14.867 2.208 1.149.517 2.498.263 3.38-.637.88-.9 1.106-2.255.565-3.392-2.954-6.198-3.337-11.5-1-13.837 2.337-2.337 7.638-1.954 13.836 1 1.138.542 2.493.316 3.393-.565.9-.881 1.154-2.23.637-3.38-2.902-6.44-3.665-11.581-2.208-14.867.89-2.006 2.666-3.416 5.43-4.311 2.531-.817 6.327-1.298 10.07 3.944.963 1.35 2.838 1.662 4.188.699 1.35-.964 1.663-2.839.699-4.189C59.123-.822 52.477-.686 47.879.8c-4.422 1.431-7.474 3.985-9.073 7.591-1.603 3.615-1.64 8.126-.122 13.464-6.028-1.542-11.062-.695-14.292 2.535-3.23 3.23-4.078 8.265-2.536 14.293-5.338-1.519-9.85-1.481-13.463.121-3.607 1.599-6.16 4.651-7.592 9.074-1.395 4.313-.967 8.288 1.272 11.813 4.025 6.337 13.842 10.79 29.207 13.262-3.212 5.876-4.91 12.51-4.876 19.335.05 9.942 3.767 19.458 10.465 26.793 15.538 17.009 32.04 33.511 49.05 49.049 3.766 3.44 8.082 6.092 12.827 7.883 1.552.585 3.284-.198 3.869-1.75.586-1.551-.197-3.284-1.749-3.869-3.34-1.26-6.425-3.031-9.208-5.263 30.665-23.533 61.683-37.712 80.132-44.894-1.249 5.67-3.937 10.952-7.879 15.333-8.909 9.897-18.443 19.431-28.339 28.339-6.622 5.958-15.187 9.03-24.125 8.653-1.664-.078-3.057 1.216-3.127 2.873-.07 1.656 1.216 3.056 2.873 3.127.579.024 1.156.036 1.732.036 6.763 0 13.303-1.685 19.12-4.871 2.473 15.36 6.926 25.175 13.263 29.199 2.175 1.381 4.519 2.073 7.01 2.073 1.547 0 3.151-.267 4.804-.802 4.421-1.431 7.474-3.986 9.072-7.592 1.602-3.614 1.64-8.126.121-13.463 6.03 1.542 11.064.695 14.293-2.534 3.229-3.23 4.077-8.264 2.535-14.294 5.337 1.519 9.85 1.481 13.463-.12 3.606-1.599 6.161-4.651 7.592-9.073 1.396-4.314.968-8.288-1.27-11.814zM69.429 41.088c6.268-5.64 14.385-8.717 22.831-8.68 8.451.042 16.539 3.2 22.773 8.893.998.912 1.989 1.839 2.984 2.758-13.989 4.602-49.009 17.661-85.251 43.149.952-6.594 3.82-12.775 8.324-17.78 8.908-9.897 18.442-19.432 28.34-28.34zM32.523 94.76c40.135-29.136 79.533-42.604 90.534-46.01 5.897 5.547 11.725 11.199 17.46 16.946-15.397 4.991-56.496 20.223-97.096 51.625-.704-.765-1.417-1.525-2.117-2.292-5.128-5.615-8.19-12.735-8.781-20.269zm14.996 26.987c42.7-32.906 85.79-47.592 97.743-51.252 5.572 5.684 11.045 11.451 16.411 17.279-16.737 5.462-56.904 20.713-96.915 51.801-5.848-5.855-11.601-11.805-17.239-17.828zm39.59 39.306c-6.092-5.624-12.114-11.367-18.045-17.213 41.777-32.262 84.594-47.252 96.884-51.126 4.265 5.778 6.606 12.765 6.643 20.023.001.256-.009.51-.014.765-18.466 6.964-52.236 21.849-85.467 47.551zm111.375-5.784c-.895 2.766-2.305 4.542-4.311 5.432-3.286 1.456-8.426.692-14.865-2.209-1.149-.516-2.498-.262-3.379.637-.881.9-1.107 2.255-.566 3.392 2.952 6.199 3.334 11.502.998 13.837-2.335 2.336-7.637 1.953-13.837-.998-1.137-.541-2.492-.315-3.392.566-.9.881-1.154 2.23-.637 3.379 2.901 6.439 3.665 11.579 2.209 14.865-.89 2.006-2.666 3.416-5.432 4.311-2.566.831-4.772.626-6.745-.626-5.027-3.193-8.898-13.034-10.959-27.795.687-.541 1.365-1.099 2.021-1.689 10.052-9.048 19.736-18.732 28.785-28.785.589-.655 1.146-1.332 1.688-2.02 14.761 2.061 24.603 5.931 27.795 10.959 1.253 1.971 1.458 4.177.627 6.744zM166.727 38.938c1.806 1.806 4.198 2.72 6.594 2.72 2.181 0 4.368-.757 6.12-2.285l7.702-6.712c1.939-1.69 3.103-4.135 3.191-6.707.088-2.572-.905-5.09-2.725-6.91l-1.655-1.655c-1.82-1.82-4.336-2.813-6.909-2.724-2.572.088-5.017 1.25-6.707 3.19l-6.713 7.702c-3.207 3.679-3.015 9.264.436 12.715l.666.666zm3.425-9.435l6.713-7.701c.61-.7 1.457-1.103 2.385-1.135l.118-.002c.884 0 1.711.343 2.34.971l1.654 1.655c.657.657 1.001 1.53.969 2.458-.032.928-.434 1.775-1.134 2.385l-7.702 6.712c-1.308 1.141-3.294 1.073-4.522-.155l-.666-.666c-1.227-1.227-1.295-3.213-.155-4.521zM144.924 28.355l.91.244c.799.214 1.603.317 2.397.317 3.892 0 7.517-2.462 8.832-6.297l3.313-9.664c.835-2.434.62-5.132-.59-7.404-1.209-2.27-3.329-3.956-5.814-4.622l-2.26-.605c-2.486-.666-5.163-.267-7.346 1.095s-3.719 3.592-4.213 6.117l-1.963 10.026c-.938 4.79 2.02 9.53 6.734 10.793zm-.841-9.639l1.963-10.026c.178-.911.71-1.684 1.498-2.175.788-.492 1.716-.63 2.613-.39l2.26.606c.897.24 1.632.824 2.068 1.643.437.82.511 1.755.21 2.634l-3.313 9.664c-.563 1.642-2.317 2.576-3.993 2.126l-.91-.243c-1.677-.45-2.729-2.136-2.396-3.839zM176.399 59.165l.244.91c1.106 4.126 4.876 6.907 9.012 6.907.588 0 1.184-.056 1.781-.173l10.026-1.963c2.525-.495 4.755-2.03 6.117-4.213 1.362-2.183 1.761-4.86 1.095-7.346l-.605-2.26c-.666-2.486-2.351-4.605-4.622-5.814-2.271-1.21-4.97-1.425-7.404-.59l-9.664 3.313c-4.616 1.583-7.243 6.515-5.98 11.229zm7.928-5.548l9.664-3.313c.878-.301 1.813-.227 2.633.21.82.436 1.404 1.17 1.644 2.067l.606 2.26c.24.898.102 1.826-.39 2.613-.492.788-1.264 1.32-2.176 1.498l-10.026 1.963c-1.703.335-3.389-.718-3.838-2.395l-.244-.91c-.449-1.676.485-3.43 2.127-3.993zM38.275 166.058c-3.451-3.451-9.036-3.642-12.715-.436l-7.701 6.713c-1.94 1.69-3.103 4.135-3.192 6.707-.088 2.571.905 5.09 2.725 6.909l1.655 1.655c1.745 1.746 4.133 2.73 6.594 2.73.105 0 .21-.001.316-.005 2.571-.088 5.016-1.251 6.706-3.191l6.713-7.701c3.207-3.679 3.015-9.264-.436-12.715l-.665-.666zm-3.426 9.434l-6.713 7.702c-.61.7-1.457 1.103-2.385 1.135-.929.027-1.8-.313-2.457-.969l-1.655-1.655c-.657-.657-1-1.53-.97-2.458.033-.928.436-1.775 1.136-2.385l7.701-6.712c.623-.544 1.4-.813 2.177-.813.852 0 1.702.325 2.345.968l.666.665c1.227 1.228 1.295 3.214.155 4.522zM60.077 176.641l-.91-.244c-4.714-1.262-9.646 1.364-11.229 5.98l-3.313 9.664c-.834 2.434-.62 5.133.59 7.404s3.33 3.956 5.815 4.622l2.26.606c.79.211 1.597.316 2.403.316 1.733 0 3.453-.482 4.943-1.411 2.183-1.362 3.718-3.592 4.213-6.117l1.963-10.026c.937-4.79-2.021-9.531-6.735-10.794zm.84 9.639l-1.962 10.026c-.178.912-.71 1.684-1.498 2.176-.788.491-1.715.63-2.613.389l-2.26-.605c-.897-.241-1.632-.824-2.068-1.644-.436-.82-.51-1.755-.21-2.633l3.314-9.664c.467-1.364 1.756-2.24 3.141-2.24.282 0 .568.037.852.113l.91.244c1.676.449 2.728 2.135 2.395 3.838zM28.602 145.831l-.244-.909c-1.263-4.714-6.003-7.671-10.793-6.734L7.538 140.15c-2.525.495-4.754 2.03-6.116 4.213-1.362 2.183-1.762 4.861-1.096 7.346l.606 2.261c.666 2.485 2.35 4.604 4.622 5.814 1.359.724 2.87 1.091 4.387 1.091 1.018 0 2.039-.165 3.017-.501l9.664-3.313c4.616-1.583 7.243-6.516 5.98-11.23zm-7.928 5.549l-9.664 3.313c-.878.301-1.813.227-2.633-.21-.82-.436-1.404-1.171-1.644-2.068l-.606-2.261c-.24-.896-.102-1.824.39-2.612.491-.788 1.264-1.32 2.175-1.498l10.027-1.963c.212-.042.424-.062.633-.062 1.471 0 2.812.99 3.206 2.457l.243.909c.45 1.678-.485 3.432-2.127 3.995z"/>
    </g>
    <defs>
        <clipPath id="clip0">
            <path fill="#fff" d="M0 0H205V205H0z"/>
        </clipPath>
    </defs>
</svg>
