<svg xmlns="http://www.w3.org/2000/svg" width="205" height="205" fill="none" viewBox="0 0 205 205">
    <g opacity=".8">
        <path fill="#FFE6B4" fill-rule="evenodd" d="M80.477 4.004c-4.052 0-10.363 12.462-10.363 18.057 0 5.595 4.642 10.135 10.362 10.135S90.84 27.656 90.84 22.06c0-5.596-6.311-18.057-10.362-18.057zM124.523 4.004c-4.051 0-10.362 12.462-10.362 18.057 0 5.595 4.631 10.135 10.362 10.135 5.72 0 10.351-4.54 10.351-10.135 0-5.596-6.31-18.057-10.351-18.057z" clip-rule="evenodd"/>
        <path fill="#FF7B79" fill-rule="evenodd" d="M124.524 50.014H55.008c-5.175 0-9.397 4.233-9.397 9.409V72.19H68.3c3.473 0 6.321 2.849 6.321 6.333v11.985c0 4.755 3.893 8.648 8.649 8.648 4.755 0 8.648-3.893 8.648-8.648V78.524c0-4.755 3.893-8.648 8.649-8.648 4.755 0 8.648 3.892 8.648 8.648 0 4.755 3.893 8.648 8.649 8.648 4.755 0 8.648-3.893 8.648-8.648 0-3.484 2.849-6.333 6.333-6.333h26.546V59.423c0-5.175-4.233-9.409-9.408-9.409h-25.458z" clip-rule="evenodd"/>
        <path fill="#FFBDBC" fill-rule="evenodd" d="M109.213 78.524c0-4.755-3.893-8.648-8.648-8.648s-8.649 3.893-8.649 8.648V90.51c0 4.756-3.893 8.649-8.648 8.649s-8.648-3.893-8.648-8.649V78.524c0-3.484-2.85-6.333-6.322-6.333H45.61v43.923H159.39V72.191h-26.547c-3.484 0-6.333 2.85-6.333 6.333 0 4.756-3.893 8.649-8.648 8.649s-8.648-3.893-8.648-8.649z" clip-rule="evenodd"/>
        <path fill="#FF7B79" fill-rule="evenodd" d="M159.389 116.114H36.429c-5.675 0-10.328 4.641-10.328 10.328v14.516l3.586 3.859c1.794 1.94 3.984 3.79 8.864 3.79 4.88 0 7.071-1.849 8.864-3.79l3.586-3.859c1.794-1.93 3.984-3.78 8.864-3.78 4.88 0 7.071 1.85 8.864 3.78l3.586 3.859c1.794 1.94 3.984 3.79 8.864 3.79 4.88 0 7.071-1.849 8.864-3.79l3.586-3.859c1.794-1.93 3.995-3.78 8.864-3.78 4.881 0 7.071 1.85 8.864 3.78l3.586 3.859c1.794 1.94 3.995 3.79 8.864 3.79 4.881 0 7.071-1.849 8.876-3.79l3.575-3.859c1.793-1.93 3.995-3.78 8.864-3.78 4.88 0 7.07 1.85 8.875 3.78l3.575 3.859c1.793 1.94 3.995 3.79 8.876 3.79 4.868 0 7.071-1.849 8.863-3.79l3.576-3.859v-14.516c0-5.686-4.643-10.328-10.317-10.328h-9.181z" clip-rule="evenodd"/>
        <path fill="#FFBDBC" fill-rule="evenodd" d="M60.535 182.212c-5.47 0-9.908-4.437-9.908-9.919 0-5.47 4.438-9.908 9.908-9.908 5.471 0 9.909 4.438 9.909 9.908 0 5.482-4.438 9.919-9.909 9.919zm41.959 0c-5.47 0-9.908-4.437-9.908-9.919 0-5.47 4.438-9.908 9.908-9.908 5.471 0 9.908 4.438 9.908 9.908 0 5.482-4.437 9.919-9.908 9.919zm21.314-33.605c-4.868 0-7.07-1.85-8.863-3.791l-3.587-3.859c-1.793-1.929-3.983-3.779-8.864-3.779-4.868 0-7.07 1.85-8.863 3.779l-3.587 3.859c-1.793 1.941-3.983 3.791-8.864 3.791-4.88 0-7.07-1.85-8.863-3.791l-3.587-3.859c-1.793-1.929-3.983-3.779-8.864-3.779-4.88 0-7.07 1.85-8.863 3.779l-3.587 3.859c-1.793 1.941-3.983 3.791-8.864 3.791-4.88 0-7.07-1.85-8.863-3.791l-3.587-3.859v41.255H144.07c-5.289-.204-9.511-4.562-9.511-9.908 0-5.471 4.426-9.908 9.908-9.908 5.47 0 9.908 4.437 9.908 9.908 0 5.346-4.234 9.704-9.522 9.908h34.037v-41.255l-3.576 3.859c-1.793 1.941-3.995 3.791-8.863 3.791-4.881 0-7.082-1.85-8.876-3.791l-3.575-3.859c-1.805-1.929-3.995-3.779-8.875-3.779-4.869 0-7.071 1.85-8.864 3.779l-3.575 3.859c-1.806 1.941-3.996 3.791-8.877 3.791z" clip-rule="evenodd"/>
        <path fill="#FF7B79" fill-rule="evenodd" d="M60.535 162.385c-5.47 0-9.908 4.438-9.908 9.908 0 5.482 4.438 9.92 9.908 9.92 5.471 0 9.909-4.438 9.909-9.92 0-5.47-4.438-9.908-9.909-9.908zM102.494 162.385c-5.47 0-9.908 4.438-9.908 9.908 0 5.482 4.438 9.92 9.908 9.92 5.471 0 9.908-4.438 9.908-9.92 0-5.47-4.437-9.908-9.908-9.908zM144.465 162.396c-5.482 0-9.908 4.438-9.908 9.909 0 5.345 4.222 9.703 9.51 9.908h.784c5.288-.205 9.522-4.563 9.522-9.908 0-5.471-4.438-9.909-9.908-9.909z" clip-rule="evenodd"/>
        <path fill="#fff" fill-rule="evenodd" d="M144.067 182.212H15.183l10.033 18.784h154.557l10.044-18.784H144.067z" clip-rule="evenodd"/>
        <path fill="#000" d="M200.996 178.209h-18.105v-51.767c0-7.903-6.424-14.332-14.321-14.332h-5.177V59.423c0-7.396-6.017-13.413-13.413-13.413h-21.453V35.636c5.972-1.712 10.351-7.147 10.351-13.575 0-4.013-2.144-9.37-4.15-13.045C131.462 3.033 128.029 0 124.523 0c-3.509 0-6.946 3.033-10.214 9.015-2.007 3.674-4.152 9.03-4.152 13.046 0 6.429 4.384 11.865 10.363 13.576V46.01H84.48V35.638c5.979-1.711 10.362-7.148 10.362-13.576 0-4.015-2.144-9.372-4.151-13.046C87.422 3.033 83.986 0 80.475 0S73.53 3.033 70.264 9.015c-2.008 3.674-4.153 9.03-4.153 13.046 0 6.429 4.384 11.865 10.363 13.576V46.01H55.008c-7.39 0-13.401 6.017-13.401 13.413v52.687h-5.178c-7.902 0-14.332 6.429-14.332 14.332v51.767H4.004c-2.211 0-4.004 1.793-4.004 4.004 0 2.211 1.793 4.004 4.004 4.004h8.779l8.901 16.665c.697 1.304 2.054 2.118 3.532 2.118h154.557c1.477 0 2.834-.813 3.531-2.116l8.912-16.667h8.78c2.211 0 4.004-1.793 4.004-4.004 0-2.211-1.793-4.004-4.004-4.004zM118.165 22.061c0-3.688 3.995-11.648 6.356-13.743 2.358 2.1 6.349 10.06 6.349 13.743 0 3.38-2.847 6.13-6.347 6.13-3.505 0-6.358-2.75-6.358-6.13zm-44.047 0c0-3.69 3.999-11.654 6.359-13.746 2.36 2.092 6.358 10.057 6.358 13.746 0 3.38-2.853 6.13-6.358 6.13-3.506 0-6.359-2.75-6.359-6.13zM49.615 59.423c0-2.98 2.42-5.405 5.393-5.405h94.972c2.98 0 5.405 2.425 5.405 5.405v8.765h-22.542c-5.7 0-10.337 4.637-10.337 10.336 0 2.561-2.084 4.645-4.645 4.645-2.561 0-4.644-2.084-4.644-4.645 0-6.976-5.676-12.652-12.652-12.652-6.977 0-12.653 5.676-12.653 12.652V90.51c0 2.56-2.084 4.644-4.644 4.644-2.561 0-4.645-2.083-4.645-4.644V78.523c0-5.7-4.632-10.336-10.326-10.336H49.614v-8.765zm-19.51 67.019c0-3.487 2.837-6.324 6.324-6.324h48.088c2.211 0 4.004-1.793 4.004-4.004 0-2.211-1.793-4.004-4.004-4.004H49.615V76.195h18.684c1.256 0 2.317 1.067 2.317 2.33v11.984c0 6.977 5.676 12.653 12.653 12.653S95.92 97.486 95.92 90.509V78.525c0-2.56 2.084-4.644 4.645-4.644 2.561 0 4.644 2.083 4.644 4.644 0 6.977 5.676 12.653 12.653 12.653 6.976 0 12.652-5.676 12.652-12.653 0-1.262 1.067-2.329 2.329-2.329h22.542v35.915h-34.913c-2.211 0-4.004 1.793-4.004 4.004 0 2.211 1.793 4.004 4.004 4.004h48.099c3.481 0 6.313 2.837 6.313 6.324v12.946l-2.512 2.711c-1.355 1.467-2.572 2.504-5.923 2.504-3.361 0-4.58-1.037-5.938-2.508l-3.588-3.873c-2.335-2.496-5.563-5.047-11.8-5.047-6.253 0-9.472 2.556-11.801 5.062l-3.57 3.854c-1.368 1.471-2.595 2.512-5.943 2.512-3.35 0-4.568-1.037-5.931-2.512l-3.587-3.859c-2.324-2.501-5.543-5.057-11.796-5.057-6.254 0-9.473 2.556-11.797 5.057l-3.595 3.867c-1.354 1.467-2.572 2.504-5.922 2.504-3.351 0-4.569-1.037-5.931-2.512l-3.587-3.859c-2.324-2.501-5.543-5.057-11.797-5.057-6.253 0-9.472 2.556-11.796 5.057l-3.595 3.867c-1.355 1.467-2.572 2.504-5.923 2.504-3.35 0-4.568-1.037-5.93-2.512l-2.516-2.706v-12.943h-.002zm0 23.961c2.03 1.281 4.686 2.208 8.447 2.208 6.268 0 9.484-2.567 11.796-5.069l3.587-3.859c1.36-1.464 2.583-2.501 5.93-2.501 3.348 0 4.57 1.037 5.932 2.501l3.578 3.85c2.32 2.511 5.536 5.078 11.805 5.078 6.268 0 9.484-2.567 11.796-5.069l3.587-3.859c1.36-1.464 2.583-2.501 5.931-2.501 3.347 0 4.57 1.037 5.931 2.501l3.578 3.85c2.32 2.511 5.537 5.078 11.805 5.078 6.252 0 9.478-2.562 11.812-5.074l3.571-3.854c1.361-1.464 2.583-2.501 5.931-2.501 3.345 0 4.576 1.041 5.938 2.496l3.572 3.855c2.32 2.511 5.537 5.078 11.816 5.078 3.754 0 6.408-.923 8.435-2.2v27.798h-17.826c.844-1.793 1.319-3.794 1.319-5.904 0-7.671-6.241-13.912-13.912-13.912-7.671 0-13.912 6.241-13.912 13.912 0 2.11.474 4.111 1.319 5.904h-16.787c.846-1.796 1.322-3.801 1.322-5.915 0-7.671-6.241-13.912-13.912-13.912-7.671 0-13.912 6.241-13.912 13.912 0 2.114.475 4.119 1.321 5.915H73.125c.846-1.796 1.322-3.801 1.322-5.915 0-7.671-6.241-13.912-13.912-13.912-7.671 0-13.912 6.241-13.912 13.912 0 2.114.475 4.119 1.321 5.915H30.105v-27.806zm120.264 21.902c0 3.255-2.649 5.904-5.904 5.904-3.256 0-5.905-2.649-5.905-5.904 0-3.256 2.649-5.904 5.905-5.904 3.255 0 5.904 2.648 5.904 5.904zm-41.97-.012c0 3.262-2.649 5.916-5.905 5.916-3.255 0-5.904-2.654-5.904-5.916 0-3.255 2.649-5.904 5.904-5.904 3.256 0 5.905 2.649 5.905 5.904zm-41.96 0c0 3.262-2.648 5.916-5.903 5.916-3.256 0-5.905-2.654-5.905-5.916 0-3.255 2.649-5.904 5.904-5.904 3.256 0 5.905 2.649 5.905 5.904zm110.934 24.699H27.617l-5.756-10.775h161.274l-5.762 10.775z"/>
        <path fill="#000" d="M102.494 120.118h.023c2.212 0 3.993-1.793 3.993-4.004 0-2.211-1.804-4.004-4.015-4.004-2.212 0-4.004 1.793-4.004 4.004 0 2.211 1.792 4.004 4.003 4.004z"/>
    </g>
</svg>
