<svg xmlns="http://www.w3.org/2000/svg" width="205" height="205" fill="none" viewBox="0 0 205 205">
    <g opacity=".8">
        <path fill="#348ED8" d="M166.563 182.578H102.5l14.131-53.695c.54-2.053 1.744-3.869 3.425-5.165 1.681-1.296 3.744-1.999 5.867-1.999h44.19c1.47 0 2.921.337 4.24.986 1.32.649 2.473 1.592 3.37 2.756.898 1.165 1.517 2.52 1.808 3.961.292 1.441.249 2.93-.125 4.352l-12.843 48.804z"/>
        <path fill="#FCB079" d="M156.953 89.688l9.61-6.407-25.555-24.93 12.742-16.71 26.578 19.933c3.682 2.761 6.671 6.343 8.729 10.46 2.059 4.117 3.131 8.657 3.131 13.26 0 5.227-1.382 10.362-4.005 14.883-2.624 4.521-6.396 8.268-10.935 10.862l-7.482 4.273-12.813-25.624zM57.656 80.078l25.625-9.61-6.406-16.015 41.641-6.406 3.203-19.219h-48.59c-4.592 0-9.084 1.347-12.918 3.875-3.833 2.528-6.841 6.126-8.65 10.347-2.264 5.282-2.51 11.212-.693 16.664l6.788 20.364z"/>
        <path fill="#FDC8A2" d="M115.723 30.39L96.911 46.09l6.753 2.812-7.235 16.6c-.378.873-.579 1.813-.589 2.764-.01.951.17 1.895.53 2.775.359.88.89 1.68 1.564 2.353.673.672 1.474 1.202 2.355 1.56l6.754 2.813-10.13 23.24 27.015 11.247 28.941-66.402-37.146-15.463z"/>
        <path fill="#91563A" d="M155.76 39.214l-13.021 29.878-2.414-12.769-11.711 21.986c-1.164 2.185-3.127 3.836-5.479 4.61-2.352.773-4.912.61-7.146-.458l-15.699-7.508c-.881-.357-1.682-.888-2.356-1.56-.673-.671-1.205-1.47-1.565-2.351-.36-.88-.54-1.824-.529-2.775.01-.951.211-1.89.59-2.763l2.286-5.249 2.899-6.643 2.05-4.708 16.885 7.027 15.719-11.019c.498-.35.9-.819 1.168-1.364.268-.547.394-1.151.366-1.76-.029-.607-.21-1.197-.528-1.716-.318-.519-.762-.949-1.29-1.25l-20.264-8.432c-1.97-.808-3.657-2.181-4.846-3.947-1.19-1.766-1.829-3.846-1.836-5.975.001-1.465.305-2.914.892-4.256 1.185-2.658 3.363-4.747 6.068-5.82 2.705-1.073 5.722-1.045 8.407.078l23.635 9.838c1.762.716 3.364 1.777 4.711 3.122 1.347 1.344 2.411 2.944 3.13 4.705.72 1.762 1.079 3.65 1.058 5.552-.021 1.903-.422 3.782-1.18 5.527z"/>
        <path fill="#91563A" d="M113.815 45.186l2.898-6.642 5.874 2.563-2.897 6.642-5.875-2.563z"/>
        <path fill="#D65246" d="M57.656 80.078l25.625-9.61 9.61 19.22 41.64 12.812 22.422-12.813 12.813 25.625-25.625 19.219-16.016 48.047H48.047l19.219-73.672-9.61-28.828z"/>
        <path fill="#FDC8A2" d="M113.751 62.409c-1.601 1.135-3.528 1.717-5.489 1.658-1.652-.015-3.289-.322-4.833-.91-1.752-.636-3.356-1.624-4.713-2.902l2.899-6.643c.308.83 1.181 2.379 4.044 3.544 2.194.889 3.824.452 4.212.152l3.88 5.1z"/>
        <path fill="#91563A" d="M9.61 182.578H195.39v12.813H9.609v-12.813z"/>
        <path fill="#CECECC" d="M22.422 169.766h96.094v12.812H22.422v-12.812z"/>
        <path fill="#DFDFDD" d="M81.6 182.578H27.344c-1.412 0-2.784-.466-3.903-1.326-1.12-.86-1.923-2.066-2.287-3.429L9.8 135.248c-.127-.476-.192-.966-.192-1.459 0-.744.147-1.48.431-2.168.285-.687.702-1.311 1.228-1.837s1.15-.943 1.838-1.228c.687-.284 1.424-.431 2.167-.431h56.528c1.444 0 2.845.488 3.977 1.385 1.132.896 1.927 2.148 2.258 3.554l9.798 41.64c.221.941.227 1.919.017 2.862-.21.942-.63 1.825-1.23 2.583-.6.757-1.363 1.369-2.233 1.79-.87.42-1.823.639-2.788.639z"/>
        <path fill="#F1F1F1" d="M52.92 161.502c2.34-2.448 2.069-6.504-.604-9.059-2.674-2.555-6.737-2.642-9.077-.194-2.339 2.448-2.068 6.503.605 9.058 2.673 2.555 6.737 2.642 9.076.195z"/>
        <path fill="#D65246" d="M153.75 140.938h28.828v41.64H153.75v-41.64z"/>
        <path fill="#000" d="M113.815 45.186l2.898-6.642 5.874 2.563-2.897 6.642-5.875-2.563zM48.587 166.563c1.264.014 2.518-.238 3.678-.742 1.16-.503 2.2-1.246 3.053-2.18.853-.934 1.498-2.037 1.895-3.238.396-1.201.535-2.472.406-3.73-.237-2.538-1.408-4.898-3.285-6.621-1.878-1.724-4.329-2.689-6.878-2.708-1.264-.015-2.518.238-3.678.741-1.16.504-2.2 1.247-3.053 2.181-.853.933-1.498 2.037-1.895 3.238-.396 1.2-.535 2.472-.405 3.73.236 2.538 1.407 4.897 3.284 6.621 1.878 1.724 4.329 2.689 6.878 2.708zm-3.123-11.986c.256-.269.566-.482.91-.625.343-.142.712-.211 1.084-.202.943.03 1.844.399 2.539 1.038.694.64 1.135 1.508 1.242 2.446.043.375.007.756-.106 1.116-.113.361-.3.694-.55.978-.257.27-.567.484-.91.626-.344.143-.714.212-1.086.202-.944-.03-1.845-.398-2.539-1.038-.694-.639-1.135-1.507-1.242-2.445-.043-.376-.007-.757.106-1.118.113-.361.3-.694.55-.978h.002z"/>
        <path fill="#000" d="M190.734 172.969c2.084-.002 4.082-.831 5.555-2.305 1.474-1.473 2.302-3.471 2.305-5.555v-13.108c-.003-2.084-.831-4.082-2.305-5.556-1.473-1.473-3.471-2.302-5.555-2.304h-4.953v-3.203c0-.85-.337-1.665-.938-2.265-.601-.601-1.415-.938-2.265-.938H153.75c-.849 0-1.664.337-2.265.938-.601.6-.938 1.415-.938 2.265v38.437h-17.978l14.294-42.882 15.429-11.571h7.822c.98 0 1.947.226 2.827.659.88.432 1.648 1.061 2.246 1.838.599.776 1.011 1.68 1.206 2.64.194.961.166 1.954-.084 2.902l6.196 1.628c.484-1.839.553-3.763.201-5.633-.352-1.869-1.116-3.636-2.236-5.174-1.12-1.537-2.568-2.806-4.24-3.713-1.671-.908-3.524-1.433-5.423-1.536l.721-.539 7.312-4.178c4.728-2.703 8.71-6.537 11.588-11.16 2.879-4.623 4.563-9.889 4.901-15.324.338-5.435-.68-10.87-2.963-15.813-2.282-4.945-5.758-9.244-10.115-12.511L158.588 40.77c1.916-4.354 2.027-9.29.309-13.726-.874-2.177-2.176-4.157-3.829-5.822s-3.623-2.982-5.794-3.872l-23.639-9.84c-3.46-1.437-7.346-1.467-10.828-.08-3.482 1.386-6.284 4.077-7.81 7.5-.74 1.682-1.136 3.494-1.163 5.331-.028 1.837.313 3.66 1.003 5.363h-33.71c-4.314.004-8.565 1.05-12.388 3.052l2.977 5.672c2.904-1.52 6.133-2.315 9.411-2.317h35.628L94.859 43.63c-.353.293-.638.658-.837 1.071-.198.413-.306.864-.315 1.322-.009.458.081.913.264 1.333.182.42.453.797.793 1.103l-18.377 2.828c-.477.074-.93.254-1.328.527-.397.273-.728.632-.967 1.051-.239.419-.38.886-.414 1.367-.033.481.043.963.222 1.41l5.19 12.977-19.447 7.293-5.736-17.21c-1.545-4.712-1.333-9.824.598-14.39 1.2-2.816 3.026-5.32 5.341-7.321l-4.196-4.84c-3.038 2.644-5.442 5.938-7.032 9.637-2.535 6.012-2.815 12.737-.787 18.939l6.787 20.365 9.308 27.925-2.602 9.985 6.2 1.617 2.842-10.904c.157-.6.135-1.233-.06-1.822l-8.634-25.9 20.035-7.512 8.32 16.639c.193.387.463.731.794 1.011.33.28.714.49 1.128.618l41.64 12.812c.419.129.859.17 1.294.122.435-.048.856-.185 1.236-.402l19.482-11.13 10.103 20.204-23.485 17.614c-.521.391-.911.931-1.117 1.549l-15.286 45.857h-4.097v-9.609c0-.85-.338-1.664-.938-2.265-.601-.601-1.416-.938-2.265-.938H89.21l-8.055-34.234c-.49-2.111-1.683-3.993-3.382-5.339-1.699-1.345-3.804-2.075-5.972-2.068H15.273c-1.359 0-2.7.312-3.92.913-1.219.601-2.284 1.474-3.112 2.552-.828 1.078-1.397 2.332-1.664 3.664-.266 1.333-.222 2.71.128 4.023l2.371 8.892 6.19-1.651-2.371-8.892c-.097-.365-.11-.747-.036-1.117.074-.37.232-.718.462-1.017.23-.299.526-.541.864-.708.339-.166.711-.253 1.088-.253h56.528c.723-.002 1.425.241 1.991.69.566.448.964 1.076 1.127 1.78l9.798 41.64c.11.47.114.959.009 1.431-.105.471-.316.913-.616 1.292-.3.378-.681.684-1.116.894-.435.211-.911.32-1.394.32H27.344c-.706-.001-1.392-.234-1.951-.664-.56-.429-.962-1.032-1.145-1.713l-7.431-27.866-6.19 1.651 7.43 27.867c.066.247.143.489.227.727H9.609c-.85 0-1.664.337-2.265.938-.6.601-.938 1.415-.938 2.265v12.812c0 .85.338 1.665.938 2.265.601.601 1.416.939 2.265.939h185.782c.849 0 1.664-.338 2.265-.939.6-.6.938-1.415.938-2.265v-12.814c0-.849-.338-1.664-.938-2.265-.601-.6-1.416-.938-2.265-.938h-9.61v-6.406h4.953zm-76.127-87.62c2.983 1.399 6.387 1.604 9.517.575 3.129-1.029 5.747-3.215 7.318-6.11l7.428-13.945.539 2.852-12.272 28.153-21.978-6.763 3.347-7.678 6.101 2.917zm-1.61-67.803c1.223-2.807 3.995-4.969 7.312-4.698 1.822.148 3.544.858 5.232 1.558l18.068 7.502c8.465 3.513 12.031 9.218 8.288 18.064-2.592 6.13-5.249 12.234-7.971 18.31.014-1.432-.309-2.935-1.259-4.005-.95-1.07-2.636-1.561-3.874-.846-.821.476-1.305 1.358-1.748 2.196L127.044 74.54c-2.806 5.306-6.225 6.739-11.864 4.028l-12.44-5.982c-1.412-.68-2.95-1.49-3.495-2.96-.923-2.492 1.513-4.885 2.126-7.472 1.849 1.165 3.979 1.808 6.164 1.86 2.185.05 4.342-.49 6.244-1.568l-3.892-5.122c-1.005.297-2.065.355-3.097.17-1.031-.185-2.005-.608-2.845-1.235l1.399-3.191 13.151 5.488c1.779.742 3.007.6 4.607-.513l13.088-9.125c1.434-1 2.907-2.04 3.838-3.519.773-1.3 1.088-2.823.893-4.324-.195-1.5-.887-2.893-1.966-3.953-1.163-1.087-2.672-1.71-4.145-2.31l-14.904-6.073c-2.212-.902-4.519-1.871-6.037-3.716-1.831-2.225-1.915-5.083-.872-7.477zm3.287 16.546l18.203 7.578c.041.042.073.093.093.149.02.055.028.114.023.173-.006.059-.023.116-.053.167-.029.051-.069.096-.118.13l-14.28 10.01-17.131-7.135 13.263-11.072zM81.346 57.006l16.392-2.522-4.247 9.739c-.55 1.252-.845 2.601-.865 3.969-.02 1.367.235 2.725.749 3.992.51 1.273 1.268 2.43 2.23 3.408.962.977 2.108 1.753 3.372 2.284l3.746 1.791L99 88.216l-3.854-1.187-13.8-30.022zm52.801 42.025l-.848-.26 13.293-30.498 14.901 14.538-27.346 16.22zm26.936-8.248l7.257-4.838c.397-.265.73-.615.974-1.025.244-.41.394-.87.438-1.344.044-.476-.018-.955-.183-1.403-.165-.448-.428-.853-.769-1.186L149.329 61.99l6.459-14.82 22.618 16.962c3.508 2.63 6.307 6.09 8.145 10.07 1.838 3.981 2.658 8.356 2.386 12.731-.273 4.376-1.629 8.615-3.946 12.337-2.318 3.721-5.524 6.808-9.331 8.983l-4.543 2.596-10.034-20.067zm29.651 59.764c.385.001.755.154 1.027.426.273.273.426.642.427 1.028v13.108c-.001.386-.154.755-.427 1.028-.272.272-.642.425-1.027.426h-4.953v-16.016h4.953zM90.953 173.97l-.236-1.001h24.596v6.406h-24.65c.615-1.736.716-3.613.29-5.405zm101.235 18.218H12.813v-6.407h179.375v6.407zm-35.235-12.813v-35.234h22.422v35.234h-22.422z"/>
    </g>
</svg>
