<svg xmlns="http://www.w3.org/2000/svg" width="205" height="205" fill="none" viewBox="0 0 205 205">
    <g opacity=".8">
        <path fill="#545C66" d="M144.109 64.063v92.858c0 3.524 2.879 6.406 6.406 6.406h44.876c3.491 0 6.406-2.882 6.406-6.406V64.063h-57.688z"/>
        <path fill="#5D9CEC" d="M172.969 89.688c3.523 0 6.406 2.882 6.406 6.406 0 3.555-2.883 6.406-6.406 6.406-3.556 0-6.407-2.85-6.407-6.406 0-3.524 2.851-6.406 6.407-6.406z"/>
        <path fill="#545C66" d="M201.797 48.079v6.374h-57.688V48.08c0-3.524 2.879-6.406 6.406-6.406h44.876c3.491 0 6.406 2.882 6.406 6.406z"/>
        <path fill="#656D78" d="M144.109 54.453h57.688v9.61h-57.688v-9.61z"/>
        <path fill="#E6E9ED" d="M48.015 153.718H92.859c3.523 0 6.406 2.851 6.406 6.407v3.203H35.202v-3.203c0-3.556 2.88-6.407 6.407-6.407h6.406z"/>
        <path fill="#CCD1D9" d="M83.25 140.906l3.202 12.812H48.015l3.203-12.812h32.031z"/>
        <path fill="#E6E9ED" d="M3.363 128.093h127.901v6.407c0 3.523-2.883 6.406-6.406 6.406H9.609c-3.523 0-6.406-2.883-6.406-6.406v-6.407h.16z"/>
        <path fill="#5D9CEC" d="M131.264 48.079v80.014H3.204V48.079c0-3.524 2.882-6.406 6.405-6.406h115.249c3.523 0 6.406 2.882 6.406 6.406z"/>
        <path fill="#87BCF4" d="M78.467 128.093H62.45l-12.825-86.42h16.016l12.825 86.42zM84.88 128.093h-3.19l-12.826-86.42h3.19l12.826 86.42z"/>
        <path fill="#000" d="M67.336 137.715c-1.771 0-3.22-1.432-3.22-3.203 0-1.772 1.417-3.203 3.185-3.203h.035c1.768 0 3.203 1.431 3.203 3.203 0 1.771-1.435 3.203-3.203 3.203zM131.267 131.309H3.363c-1.771 0-3.203-1.432-3.203-3.204 0-1.771 1.432-3.203 3.203-3.203H131.27c1.772 0 3.204 1.432 3.204 3.203 0 1.772-1.435 3.204-3.207 3.204z"/>
        <path fill="#000" d="M124.861 144.121H9.619c-5.298 0-9.61-4.311-9.61-9.609V48.079c0-5.298 4.312-9.61 9.61-9.61h115.245c5.298 0 9.61 4.312 9.61 9.61v86.433c-.004 5.298-4.312 9.609-9.613 9.609zM9.619 44.876c-1.768 0-3.203 1.435-3.203 3.203v86.433c0 1.768 1.435 3.203 3.203 3.203h115.245c1.768 0 3.203-1.435 3.203-3.203V48.079c0-1.768-1.435-3.203-3.203-3.203H9.619z"/>
        <path fill="#000" d="M48.034 156.921c-.256 0-.519-.032-.778-.096-1.717-.429-2.761-2.169-2.332-3.882l3.2-12.8c.429-1.72 2.165-2.771 3.882-2.332 1.717.429 2.761 2.169 2.332 3.882l-3.2 12.8c-.362 1.461-1.669 2.428-3.104 2.428zM86.446 156.921c-1.435 0-2.739-.971-3.104-2.428l-3.2-12.8c-.432-1.713.612-3.453 2.332-3.882 1.714-.439 3.453.612 3.882 2.332l3.2 12.8c.433 1.713-.612 3.453-2.332 3.882-.26.064-.522.096-.778.096z"/>
        <path fill="#000" d="M35.218 163.328c-1.77 0-3.203-1.432-3.203-3.203 0-5.298 4.312-9.61 9.61-9.61 1.771 0 3.203 1.432 3.203 3.203 0 1.772-1.432 3.203-3.203 3.203-1.769 0-3.203 1.435-3.203 3.204 0 1.771-1.432 3.203-3.204 3.203zM99.262 163.328c-1.772 0-3.204-1.432-3.204-3.203 0-1.769-1.434-3.204-3.203-3.204-1.771 0-3.203-1.431-3.203-3.203 0-1.771 1.432-3.203 3.203-3.203 5.298 0 9.61 4.312 9.61 9.61 0 1.771-1.432 3.203-3.203 3.203z"/>
        <path fill="#000" d="M92.855 156.921h-51.23c-1.772 0-3.203-1.431-3.203-3.203 0-1.771 1.431-3.203 3.203-3.203h51.23c1.772 0 3.203 1.432 3.203 3.203 0 1.772-1.431 3.203-3.203 3.203zM35.218 166.531c-1.77 0-3.203-1.432-3.203-3.203v-3.203c0-1.772 1.432-3.204 3.203-3.204 1.772 0 3.203 1.432 3.203 3.204v3.203c0 1.771-1.431 3.203-3.203 3.203z"/>
        <path fill="#000" d="M99.262 166.531H35.218c-1.77 0-3.203-1.432-3.203-3.203 0-1.772 1.432-3.203 3.203-3.203h64.044c1.771 0 3.203 1.431 3.203 3.203 0 1.771-1.432 3.203-3.203 3.203z"/>
        <path fill="#000" d="M99.262 166.531c-1.772 0-3.204-1.432-3.204-3.203v-3.203c0-1.772 1.432-3.204 3.204-3.204 1.771 0 3.203 1.432 3.203 3.204v3.203c0 1.771-1.432 3.203-3.203 3.203zM195.381 166.53h-44.847c-5.298 0-9.609-4.311-9.609-9.609V48.079c0-5.298 4.311-9.61 9.609-9.61h44.847c5.298 0 9.609 4.312 9.609 9.61V156.92c0 5.301-4.311 9.609-9.609 9.609zM150.534 44.876c-1.768 0-3.203 1.435-3.203 3.203V156.92c0 1.768 1.435 3.203 3.203 3.203h44.847c1.768 0 3.203-1.435 3.203-3.203V48.079c0-1.768-1.435-3.203-3.203-3.203h-44.847z"/>
        <path fill="#000" d="M201.787 57.675h-57.659c-1.772 0-3.203-1.431-3.203-3.203 0-1.77 1.431-3.203 3.203-3.203h57.659c1.772 0 3.203 1.432 3.203 3.203 0 1.772-1.431 3.203-3.203 3.203zM201.787 67.278h-57.659c-1.772 0-3.203-1.431-3.203-3.203 0-1.771 1.431-3.203 3.203-3.203h57.659c1.772 0 3.203 1.432 3.203 3.203 0 1.772-1.431 3.203-3.203 3.203zM172.959 105.716c-5.298 0-9.609-4.312-9.609-9.61 0-5.297 4.311-9.609 9.609-9.609s9.609 4.311 9.609 9.61c0 5.297-4.311 9.609-9.609 9.609zm0-12.813c-1.768 0-3.203 1.435-3.203 3.203 0 1.769 1.435 3.204 3.203 3.204 1.768 0 3.203-1.435 3.203-3.204 0-1.768-1.435-3.203-3.203-3.203zM185.772 131.348h-25.625c-1.772 0-3.204-1.432-3.204-3.203 0-1.772 1.432-3.204 3.204-3.204h25.625c1.771 0 3.203 1.432 3.203 3.204 0 1.771-1.432 3.203-3.203 3.203zM185.772 140.957h-25.625c-1.772 0-3.204-1.432-3.204-3.203s1.432-3.203 3.204-3.203h25.625c1.771 0 3.203 1.432 3.203 3.203s-1.432 3.203-3.203 3.203zM185.772 150.566h-25.625c-1.772 0-3.204-1.431-3.204-3.203 0-1.771 1.432-3.203 3.204-3.203h25.625c1.771 0 3.203 1.432 3.203 3.203 0 1.772-1.432 3.203-3.203 3.203z"/>
    </g>
</svg>
