<svg xmlns="http://www.w3.org/2000/svg" width="205" height="205" fill="none" viewBox="0 0 205 205">
    <g clip-path="url(#clip0)" opacity=".8">
        <path fill="#99E6FC" fill-rule="evenodd" d="M102.485 200.194c45.942 0 83.412-37.495 83.412-83.466 0-45.96-37.47-83.455-83.412-83.455-45.93 0-83.4 37.495-83.4 83.455 0 45.971 37.47 83.466 83.4 83.466z" clip-rule="evenodd"/>
        <path fill="#68CA44" fill-rule="evenodd" d="M98.497 90.359c6.201 20.347 37.149 11.171 34.089-9.302-5.766-23.261 18.936-16.597 2.522-41.154-10.019-4.267-21.045-6.63-32.623-6.63-3.737 0-7.416.253-11.026.723L39.706 61.8C27.899 75.288 20.38 92.62 19.234 111.67c24.953 12.399 33.883-5.907 39.132-21.311 7.28-21.357 34.961-16.93 40.13 0zM100.307 200.16c2.178-12.731-2.59-29.409-19.039-30.315-13.468-.745-13.273-.814-20.128-15.989-6.487-14.383-28.77-12.777-33.974-1.239 13.113 27.517 40.84 46.718 73.141 47.543z" clip-rule="evenodd"/>
        <path fill="#4FC122" fill-rule="evenodd" d="M95.103 44.996c14.489 4.564 27.407 12.674 37.735 23.306 3.725-9.118 14.592-9.955 2.269-28.399-10.018-4.267-21.045-6.63-32.622-6.63-3.737 0-7.416.253-11.027.723 2.281 2.925 3.645 6.607 3.645 10.61v.39z" clip-rule="evenodd"/>
        <path fill="#2ED1E2" fill-rule="evenodd" d="M132.838 68.303c15.841 16.31 25.596 38.562 25.596 63.096 0 .55 0 1.101-.012 1.663l7.371 1.239 2.831-5.517c3.026-5.69 6.717-9.107 10.408-10.759 2.086-.929 4.527-1.812 6.854-2.248-.378-34.1-21.205-63.291-50.778-75.874 12.322 18.444 1.455 19.282-2.27 28.4z" clip-rule="evenodd"/>
        <path fill="#E0D2CE" fill-rule="evenodd" d="M162.245 175.805l10.431-12.044 13.594-15.702 4.058-4.68c4.149-4.943 5.937-9.646 6.087-13.683.195-4.841-.436-11.034-3.703-13.214-3.255-2.225-9.215-.493-13.64 1.491-3.691 1.64-7.381 5.058-10.408 10.748l-2.831 5.517-9.491 18.489-7.313 14.257-6.934 13.534c-3.336 7.674 4.275 13.202 10.132 6.848l10.018-11.561z" clip-rule="evenodd"/>
        <path fill="#9D9696" fill-rule="evenodd" d="M156.302 152.79l9.491-18.49-26.674-4.496c-4.653-.883-8.505 1.606-9.857 3.601l-2.625 3.9c-1.995 2.948-.745 4.634 2.51 5.769l13.377 4.806 13.778 4.91zM200.695 181.694c1.353-1.996 2.212-6.504-.344-10.483l-14.122-23.089-13.594 15.702 9.697 10.965 9.445 10.621c2.258 2.604 4.299 3.131 6.282.183l2.636-3.899zM142.054 180.581l6.934-13.534-14.511-3.212c-3.622-.768-6.648 1.25-7.703 2.81l-1.444 2.145c-1.547 2.305-.573 3.624 1.972 4.508l14.752 7.283zM170.801 196.41c1.055-1.56 1.8-5.127-.275-8.19l-8.321-12.353-10.018 11.561 12.253 10.977c1.765 2.03 3.358 2.443 4.917.149l1.444-2.144z" clip-rule="evenodd"/>
        <path fill="#B8ACAC" fill-rule="evenodd" d="M187.915 115.524c1.066 2.822 1.295 6.538 1.169 9.692-.069 1.824-.47 3.785-1.272 5.838-.974 2.5-2.545 5.127-4.814 7.834l-4.058 4.68-2.602 3.016-11.004 12.697-10.419 12.032-10.019 11.574c-1.157 1.25-2.384 2.041-3.576 2.443.298 1.961 1.41 3.498 2.923 4.278 2.201 1.147 5.25.734 7.943-2.179l10.018-11.562 10.431-12.043 13.595-15.703 4.057-4.679c4.15-4.944 5.938-9.647 6.087-13.684.195-4.84-.435-11.034-3.702-13.213-1.261-.86-2.934-1.124-4.757-1.021z" clip-rule="evenodd"/>
        <path fill="#E0D2CE" fill-rule="evenodd" d="M83.389 60.905c6.809-2.283 11.715-8.718 11.715-16.299 0-4.003-1.364-7.685-3.646-10.61-3.152-4.014-8.046-6.595-13.537-6.595-1.249 0-2.464.138-3.633.39C73.096 14.9 62.252 4.806 49.058 4.806c-8.241 0-15.554 3.922-20.185 10.013-.78-.149-1.593-.218-2.43-.218-7.336 0-13.296 5.953-13.296 13.294 0 .344.011.677.034.998-5.994 2.683-10.178 8.705-10.178 15.713 0 7.581 4.906 14.016 11.715 16.299 1.41.573 2.945.894 4.55.894H78.85c1.605 0 3.14-.32 4.539-.894z" clip-rule="evenodd"/>
        <path fill="#B8ACAC" fill-rule="evenodd" d="M83.389 60.905c6.809-2.283 11.715-8.718 11.715-16.299 0-4.003-1.365-7.685-3.646-10.61-3.152-4.014-8.046-6.595-13.537-6.595-1.25 0-2.464.138-3.633.39C73.096 14.9 62.252 4.806 49.058 4.806c-5.387 0-10.373 1.674-14.476 4.542 12.883 4.633 22.11 17.032 22.11 31.61 0 7.88-2.693 15.118-7.197 20.841H78.85c1.604 0 3.14-.32 4.539-.894z" clip-rule="evenodd"/>
        <path fill="#000" d="M202.897 169.617l-12.958-21.186 2.618-3.023.031-.036c4.252-5.067 6.6-10.428 6.787-15.5.209-5.541-.494-12.78-5.034-15.816-1.607-1.096-3.527-1.539-5.563-1.556-.703-14.448-5.011-28.504-12.548-40.842-.865-1.416-2.714-1.862-4.128-.998-1.415.865-1.862 2.713-.997 4.128 7.122 11.66 11.146 24.97 11.703 38.638-1.767.509-3.48 1.173-5.017 1.859-4.641 2.083-8.731 6.263-11.83 12.088l-.02.039-1.827 3.561-24.478-4.125c-5.567-1.045-10.681 1.657-12.863 4.876l-2.639 3.905c-1.398 2.077-1.799 4.055-1.192 5.877.974 2.925 4.166 4.038 5.189 4.394l13.384 4.809 10.547 3.758-4.692 9.146-12.28-2.715c-4.624-.984-8.935 1.3-10.807 4.07l-1.442 2.14c-1.22 1.804-1.563 3.545-1.021 5.176.811 2.438 3.268 3.42 4.304 3.787l12.313 6.079c-.409 2.219-.152 4.375.694 6.198-10.934 5.608-23.095 8.64-35.454 8.824.517-7.051-.798-15.748-5.923-22.18-3.95-4.958-9.598-7.775-16.333-8.146-6.227-.344-9.051-.552-10.745-1.86-1.883-1.456-3.508-5.062-6.458-11.607l-.342-.758c-3.37-7.47-11.055-12.109-20.06-12.109h-.012c-6.405.003-12.175 2.266-15.989 6.041-3.693-9.228-5.729-19.293-5.729-29.825 0-.167.005-.333.006-.499 4.312 1.695 8.338 2.543 12.067 2.543 6.683 0 12.413-2.719 17.131-8.15 1.088-1.252.955-3.149-.297-4.236-1.253-1.088-3.149-.955-4.237.298-3.825 4.404-10.475 9.391-24.371 3.151 1.42-16.547 7.929-32.287 18.703-45.034h37.75c1.917 0 3.799-.363 5.592-1.08 8.184-2.785 13.675-10.454 13.675-19.116 0-2.875-.607-5.61-1.693-8.09 2.025-.153 4.054-.24 6.072-.24 10.628 0 21.017 2.113 30.628 6.078 3.326 5.118 4.864 8.978 4.69 11.777-.143 2.328-1.539 4.026-3.305 6.174-3.281 3.992-7.77 9.454-4.875 21.328 1.252 8.868-5.252 15.124-12.362 16.73-5.696 1.286-13.279-.268-15.904-8.879-2.91-9.554-12.441-16.351-23.176-16.53-.15-.002-.296-.003-.445-.003-10.411 0-18.7 6.118-22.224 16.442-.903 2.66-1.71 4.804-2.543 6.748-.652 1.525.056 3.29 1.58 3.942 1.525.652 3.29-.056 3.943-1.58.892-2.09 1.753-4.37 2.705-7.173C65.072 79.976 74.312 78.9 78.08 78.959c8.162.135 15.37 5.183 17.532 12.275 2.933 9.624 10.536 13.538 18.058 13.537 1.659 0 3.314-.19 4.913-.551 9.85-2.224 18.838-11.047 16.96-23.607-.014-.094-.032-.187-.055-.278-2.243-9.049.619-12.53 3.649-16.217 3.901-4.745 6.489-9.078 3.207-17.244 7.717 4.41 14.737 10.11 20.716 16.957.593.68 1.426 1.028 2.263 1.028.701 0 1.404-.244 1.974-.74 1.249-1.091 1.378-2.989.287-4.238-8.617-9.87-19.245-17.528-31-22.583-.203-.116-.416-.21-.638-.275-10.48-4.407-21.838-6.753-33.461-6.753-3.263 0-6.557.19-9.813.562-3.687-3.955-8.934-6.434-14.75-6.434-.37 0-.742.01-1.113.031-1.192-5.811-4.185-11.117-8.613-15.179C62.96 4.447 56.16 1.802 49.047 1.802c-8.341 0-16.068 3.562-21.46 9.833-.376-.025-.758-.038-1.144-.038-8.708 0-15.843 6.864-16.278 15.465C3.931 30.636 0 37.32 0 44.606c0 8.66 5.49 16.329 13.67 19.115 1.784.717 3.663 1.081 5.586 1.081h14.156c-10.133 13.485-16.1 29.648-17.157 46.505-.016.133-.024.265-.022.396-.097 1.67-.152 3.345-.152 5.025 0 23.098 8.987 44.812 25.304 61.142 16.319 16.333 38.017 25.328 61.099 25.328 14.45 0 28.697-3.632 41.312-10.514.892.324 1.869.507 2.893.507 1.75 0 3.634-.531 5.453-1.77l10.157 9.099c.698.792 2.413 2.591 4.826 2.591.098 0 .197-.002.298-.009 1.714-.105 3.199-1.07 4.413-2.87l1.441-2.141c1.877-2.776 2.389-7.638-.261-11.549l-7.041-10.445 6.677-7.709 7.425 8.397 9.42 10.593c.703.81 2.791 3.218 5.71 3.217.105 0 .211-.003.318-.009 1.924-.116 3.613-1.229 5.021-3.31l2.642-3.907c2.166-3.223 2.759-8.977-.291-13.752zM15.857 58.127c-.061-.026-.123-.049-.185-.07-5.782-1.938-9.666-7.343-9.666-13.451 0-5.596 3.298-10.688 8.402-12.973 1.153-.516 1.86-1.697 1.769-2.956-.018-.246-.027-.51-.027-.783 0-5.674 4.618-10.29 10.294-10.29.659 0 1.29.056 1.874.166 1.117.21 2.258-.228 2.947-1.134 4.265-5.61 10.747-8.827 17.783-8.827 11.61 0 21.17 8.71 22.239 20.258.079.855.52 1.635 1.21 2.143.692.509 1.568.697 2.407.518 1.005-.215 2.02-.324 3.018-.324 7.818 0 14.18 6.371 14.18 14.202 0 6.108-3.886 11.513-9.667 13.451-.06.02-.119.042-.177.066-1.098.447-2.248.674-3.419.674H19.256c-1.17 0-2.315-.226-3.4-.67zm127.682 86.927l-13.403-4.815c-.749-.261-1.162-.489-1.376-.634.062-.141.17-.345.353-.618l2.634-3.896c.683-1.008 3.341-2.994 6.799-2.337l.062.011 22.63 3.815-6.411 12.497-11.288-4.023zm-15.264 25.407c-.137-.048-.256-.093-.359-.135l1.347-1.999c.399-.59 2.224-2.056 4.555-1.559l10.719 2.37-3.817 7.442-12.101-5.974c-.111-.056-.227-.104-.344-.145zm-97.712-17.802c2.38-3.714 7.497-6.138 13.245-6.14h.009c6.712 0 12.164 3.204 14.586 8.572l.34.756c3.457 7.669 5.192 11.519 8.262 13.891 3.242 2.506 7.093 2.719 14.087 3.106 5.046.278 9.072 2.26 11.966 5.892 4.136 5.191 5.113 12.443 4.61 18.308-29.387-1.748-54.574-19.363-67.105-44.385zm114.874 34.181c-1.09-.711-1.713-2.523-.676-4.981l6.83-13.314c.034-.059.063-.121.094-.183l7.237-14.109.028-.054 12.323-24.024c2.465-4.627 5.568-7.881 8.97-9.408 2.183-.974 4.228-1.646 5.97-1.995.129-.015.253-.04.376-.07 1.976-.351 3.525-.262 4.373.319l.036.024c1.645 1.094 2.577 5.255 2.375 10.602-.137 3.722-1.994 7.818-5.371 11.846l-3.981 4.596c-.037.041-.073.082-.108.125l-13.449 15.527c-.087.09-.168.181-.242.279l-9.575 11.054c-.08.044-.159.09-.236.142-.538.363-.919.87-1.13 1.435l-9.331 10.773c-1.561 1.673-3.289 2.216-4.513 1.416zm22.603 3.065c1.345 1.985.663 4.23.259 4.827l-1.336 1.984c-.077-.079-.163-.173-.258-.281-.081-.094-.169-.183-.262-.266l-10.053-9.006 5.512-6.364 6.138 9.106zm30.168-9.893l-2.636 3.899c-.187.276-.339.454-.447.566-.214-.146-.584-.45-1.115-1.062l-9.44-10.616-7.951-8.991 9.194-10.613 11.977 19.582.035.056c1.904 2.965 1.057 6.176.383 7.179z"/>
    </g>
    <defs>
        <clipPath id="clip0">
            <path fill="#fff" d="M0 0H205V205H0z"/>
        </clipPath>
    </defs>
</svg>
