<svg xmlns="http://www.w3.org/2000/svg" width="205" height="205" fill="none" viewBox="0 0 205 205">
    <g opacity=".8">
        <path fill="#E6E9ED" d="M61.724 102.916c-4.132 4.1-6.15 8.104-7.27 11.371v-38.02c0-4.581-2.147-8.81-5.574-11.884-6.375-5.766-10.443-15.151-10.443-25.945 0-17.97 11.244-32.032 25.626-32.032 14.382 0 25.624 14.062 25.624 32.032 0 10.794-4.067 20.18-10.442 25.945-3.427 3.075-5.573 7.303-5.573 11.883v19.187c-3.363 1.09-7.591 3.107-11.948 7.463zM166.562 12.813v39.59c0 3.46-1.153 6.695-3.107 9.29-1.985 2.626-4.772 4.612-8.103 5.573-6.631 1.89-11.211 7.975-11.211 14.862v41.385c-5.862-3.812-12.332-6.791-19.219-8.745v-32.64c0-3.46-1.153-6.694-3.107-9.289-1.986-2.626-4.773-4.612-8.104-5.573-6.631-1.89-11.211-7.976-11.211-14.863v-39.59c0-1.762.705-3.364 1.89-4.517 1.153-1.185 2.755-1.89 4.516-1.89 3.524 0 6.406 2.883 6.406 6.407v32.03c0 1.762.705 3.364 1.89 4.517 1.153 1.185 2.755 1.89 4.517 1.89 3.523 0 6.406-2.883 6.406-6.406V12.812c0-1.761.705-3.363 1.89-4.516 1.153-1.185 2.755-1.89 4.516-1.89 3.524 0 6.407 2.883 6.407 6.407v32.03c0 1.762.704 3.364 1.889 4.517 1.153 1.185 2.755 1.89 4.517 1.89 3.523 0 6.406-2.883 6.406-6.406V12.812c0-1.761.705-3.363 1.89-4.516 1.153-1.185 2.755-1.89 4.516-1.89 3.524 0 6.406 2.883 6.406 6.407z"/>
        <path fill="#AAB2BD" d="M145.262 183.443c31.134-3.62 52.627-11.051 53.3-19.667h.032v12.396c0 12.396-43.018 22.422-96.094 22.422-53.076 0-96.094-10.026-96.094-22.422v-12.813c0 5.51 8.489 10.539 22.582 14.414v.032c17.617 4.869 44.011 7.976 73.512 7.976 8.873 0 17.457-.288 25.625-.801h.032c5.958-.384 11.691-.896 17.105-1.537z"/>
        <path fill="#E6E9ED" d="M31.615 160.573l.544.544c-1.697 5.318-2.786 10.859-3.17 16.657-14.095-3.876-22.583-8.905-22.583-14.414 0-4.677 6.118-9.001 16.625-12.621-.129.192-.353.385-.61.641l9.194 9.193zM198.594 163.359c0 .128 0 .289-.032.417-.673 8.616-22.166 16.047-53.3 19.667 7.015-3.235 12.3-9.513 14.158-17.169 1.281.192 2.594.288 3.939.288 10.058 0 18.739-5.765 22.935-14.189 7.815 3.235 12.3 6.982 12.3 10.986z"/>
        <path fill="#FFEAA7" d="M144.397 123.705c-2.819 3.107-4.901 6.918-5.926 11.115-1.281-.193-2.594-.289-3.94-.289-14.158 0-25.625 11.467-25.625 25.625 0 11.948 8.168 21.974 19.219 24.824-8.168.513-16.752.801-25.625.801-29.5 0-55.895-3.107-73.512-7.976v-.032c.385-5.797 1.474-11.339 3.171-16.656l8.649 8.649c6.31-6.311 7.687-12.3 8.488-15.92.545-2.306.545-2.306 1.538-3.299 1.025-1.025 1.025-1.025 3.33-1.538 3.588-.832 9.61-2.21 15.888-8.52 6.31-6.278 7.688-12.3 8.52-15.887.513-2.307.513-2.307 1.538-3.332.993-.993.993-.993 3.267-1.505 3.428-.801 9.065-2.05 15.055-7.656h7.271c6.695 0 13.133.929 19.219 2.659 6.887 1.954 13.357 4.933 19.219 8.745.096.064.16.128.256.192z"/>
        <path fill="#FF826E" d="M90.104 102.084l-9.193-9.193c-.993.993-.993.993-3.3 1.537-1.088.224-2.434.545-3.94 1.025-3.362 1.09-7.59 3.107-11.947 7.463-4.132 4.1-6.15 8.104-7.27 11.372-.61 1.729-.962 3.267-1.25 4.516-.513 2.306-.513 2.306-1.506 3.331-1.025.993-1.025.993-3.33 1.538-3.588.8-9.61 2.178-15.92 8.488-6.279 6.31-7.656 12.3-8.489 15.919-.384 1.698-.48 2.147-.928 2.659-.129.192-.353.384-.61.641l9.194 9.193.544.544 8.649 8.649c6.31-6.311 7.687-12.3 8.488-15.92.545-2.306.545-2.306 1.538-3.299 1.025-1.025 1.025-1.025 3.33-1.538 3.588-.832 9.61-2.21 15.888-8.52 6.31-6.278 7.688-12.3 8.52-15.887.513-2.307.513-2.307 1.538-3.332.993-.993.993-.993 3.267-1.505 3.428-.801 9.065-2.05 15.055-7.656.288-.256.577-.544.865-.832l-9.193-9.193z"/>
        <path fill="#A0D468" d="M159.42 166.274c-1.858 7.656-7.143 13.934-14.158 17.169-5.414.641-11.147 1.153-17.105 1.537h-.032c-11.051-2.85-19.219-12.876-19.219-24.824 0-14.158 11.467-25.625 25.625-25.625 1.346 0 2.659.096 3.94.289-.48 1.953-.737 4.003-.737 6.118 0 2.498.353 4.9 1.025 7.175-1.313-.449-2.722-.769-4.228-.769-7.079 0-12.812 5.733-12.812 12.812s5.733 12.813 12.812 12.813c6.823 0 12.332-5.317 12.749-12.076 3.427 2.755 7.591 4.677 12.14 5.381z"/>
        <path fill="#B4DD7F" d="M147.28 160.861v.032c-.417 6.759-5.926 12.076-12.749 12.076-7.079 0-12.812-5.734-12.812-12.813 0-7.079 5.733-12.812 12.812-12.812 1.506 0 2.915.32 4.228.769 1.474 5.092 4.485 9.545 8.521 12.748z"/>
        <path fill="#FC6E51" d="M159.42 166.274c-4.549-.704-8.713-2.626-12.14-5.381v-.032c-4.036-3.203-7.047-7.656-8.521-12.748-.672-2.275-1.025-4.677-1.025-7.175 0-2.115.257-4.165.737-6.118 1.025-4.197 3.107-8.008 5.926-11.115 4.676-5.157 11.435-8.393 18.962-8.393 14.158 0 25.625 11.468 25.625 25.626 0 4.1-.961 8.007-2.69 11.435-4.196 8.424-12.877 14.189-22.935 14.189-1.345 0-2.658-.096-3.939-.288z"/>
        <path fill="#FF826E" d="M163.359 153.75c7.077 0 12.813-5.736 12.813-12.812 0-7.077-5.736-12.813-12.813-12.813-7.076 0-12.812 5.736-12.812 12.813 0 7.076 5.736 12.812 12.812 12.812z"/>
        <path fill="#000" d="M201.797 163.359c0-4.743-3.834-8.981-11.362-12.623 1.115-3.066 1.753-6.355 1.753-9.798 0-15.894-12.932-28.829-28.829-28.829-5.922 0-11.432 1.801-16.015 4.876V82.128c0-5.442 3.655-10.288 8.885-11.784 7.973-2.278 13.537-9.654 13.537-17.94V12.811c0-5.297-4.312-9.609-9.61-9.609-5.298 0-9.609 4.312-9.609 9.61v32.03c0 1.766-1.435 3.204-3.203 3.204-1.768 0-3.203-1.438-3.203-3.203V12.812c0-5.297-4.312-9.609-9.61-9.609-5.298 0-9.609 4.312-9.609 9.61v32.03c0 1.766-1.435 3.204-3.203 3.204-1.768 0-3.203-1.438-3.203-3.203V12.812c0-5.297-4.312-9.609-9.61-9.609-5.298 0-9.61 4.312-9.61 9.61v39.59c0 8.287 5.565 15.667 13.537 17.944 5.231 1.493 8.886 6.339 8.886 11.781v28.527c-5.221-1.156-10.587-1.749-16.016-1.749l-4.241.003-20.541-20.544-2.268 2.261c-.176.176-.279.33-.225.291-.307.122-.743.2-1.518.375-.01.004-.025.007-.035.01V76.26c0-3.491 1.602-6.864 4.507-9.49 7.313-6.618 11.509-16.945 11.509-28.332 0-19.757-12.662-35.235-28.829-35.235-16.166 0-28.828 15.478-28.828 35.234 0 11.388 4.197 21.715 11.51 28.329 2.904 2.63 4.506 6.003 4.506 9.494v37.573c-.538 1.659-.894 3.129-1.153 4.269-.18.779-.256 1.218-.266 1.336-.1.125-.234.247-.407.42-.186.186-.3.314-.24.304-.31.122-.746.202-1.528.378-3.67.836-10.5 2.396-17.46 9.356-6.954 6.951-8.517 13.783-9.36 17.467-.083.368-.144.65-.185.868-11.538 4.174-17.448 9.254-17.448 15.128v12.813c0 16.823 49.953 25.625 99.297 25.625 49.344 0 99.297-8.802 99.297-25.625v-12.383h-.039c.007-.145.039-.285.039-.43zm-6.406 0c0 5.058-14.049 11.371-38.841 15.353 2.245-2.665 4.003-5.724 5.169-9.03.548.032 1.086.084 1.64.084 10.177 0 19.117-5.314 24.248-13.297 5.679 2.739 7.784 5.298 7.784 6.89zm-66.789 18.399c-9.724-2.662-16.493-11.477-16.493-21.602 0-12.364 10.061-22.422 22.422-22.422.061 0 .125.013.186.013-.115 1.051-.186 2.111-.186 3.191 0 1.089.074 2.162.192 3.219-.064 0-.128-.016-.192-.016-8.831 0-16.015 7.184-16.015 16.015s7.184 16.016 16.015 16.016v-6.406c-5.298 0-9.609-4.312-9.609-9.61 0-5.298 4.311-9.609 9.609-9.609.59 0 1.173.064 1.743.17 3.113 8.59 10.173 15.291 19.001 17.876-2.095 5.116-6.064 9.385-11.102 11.794-4.885.551-10.081 1.016-15.571 1.371zm34.757-63.242c12.361 0 22.422 10.057 22.422 22.422 0 12.364-10.061 22.421-22.422 22.421-12.36 0-22.421-10.057-22.421-22.421 0-12.365 10.061-22.422 22.421-22.422zm-48.77-54.329c-5.231-1.495-8.886-6.342-8.886-11.784v-39.59c0-1.765 1.435-3.204 3.203-3.204 1.768 0 3.203 1.439 3.203 3.204v32.03c0 5.299 4.312 9.61 9.61 9.61 5.298 0 9.609-4.311 9.609-9.61v-32.03c0-1.765 1.435-3.204 3.203-3.204 1.768 0 3.203 1.439 3.203 3.204v32.03c0 5.299 4.312 9.61 9.61 9.61 5.298 0 9.609-4.311 9.609-9.61v-32.03c0-1.765 1.435-3.204 3.203-3.204 1.768 0 3.203 1.439 3.203 3.204v39.59c0 5.442-3.654 10.289-8.885 11.784-7.973 2.278-13.536 9.655-13.536 17.941v35.76c-4.101-2.239-8.389-4.059-12.813-5.468V82.128c0-8.286-5.564-15.663-13.536-17.94zm25.083 60.363c-1.467 2.114-2.639 4.433-3.504 6.903-.548-.032-1.089-.125-1.637-.125-15.897 0-28.828 12.934-28.828 28.828 0 8.812 3.998 16.852 10.449 22.198-4.405.141-8.947.224-13.652.224-30.032 0-53.998-3.049-70.068-7.104.288-2.758.746-5.487 1.37-8.178l7 6.999 2.264-2.265c6.964-6.96 8.52-13.789 9.356-17.46.18-.778.257-1.217.27-1.339.099-.125.233-.25.416-.429.17-.17.288-.301.24-.301.308-.122.746-.202 1.522-.378 3.67-.836 10.5-2.396 17.46-9.353 6.957-6.954 8.514-13.787 9.353-17.461.18-.778.256-1.214.269-1.335.1-.125.234-.25.41-.423.173-.176.266-.317.221-.288.308-.122.743-.199 1.515-.375 3.325-.756 9.248-2.146 15.513-7.569l6.092-.007c12.031 0 23.69 3.207 33.969 9.238zm-56.996-7.911c-2.579.589-3.248.788-4.847 2.383-1.598 1.601-1.8 2.274-2.392 4.868-.791 3.466-1.986 8.703-7.636 14.35-5.654 5.654-10.891 6.849-14.36 7.64-2.588.593-3.26.794-4.862 2.393-1.608 1.604-1.807 2.28-2.4 4.875-.679 2.972-1.656 7.248-5.49 11.976l-4.654-4.654c2.748-3.418 3.453-6.4 4.062-9.074.634-2.777 1.134-4.972 4.087-7.925 2.956-2.953 5.147-3.456 7.928-4.087 3.17-.727 6.768-1.547 11.025-5.804 4.257-4.257 5.077-7.854 5.8-11.025.635-2.777 1.135-4.968 4.081-7.918 2.947-2.947 5.138-3.447 7.915-4.078 2.672-.609 5.647-1.31 9.062-4.055l4.654 4.654c-4.725 3.834-9 4.805-11.973 5.481zM51.042 62.016c-5.977-5.404-9.401-13.998-9.401-23.578 0-16.167 9.85-28.829 22.422-28.829 12.572 0 22.421 12.662 22.421 28.828 0 9.581-3.424 18.175-9.4 23.579-4.267 3.86-6.615 8.917-6.615 14.244v16.983c-3.287 1.33-7.12 3.498-11.019 7.399-.66.66-1.227 1.313-1.794 1.967V76.26c0-5.327-2.348-10.385-6.614-14.244zm-23.96 86.76c.792-3.466 1.993-8.707 7.643-14.354 5.657-5.656 10.89-6.848 14.36-7.639 2.588-.593 3.257-.794 4.865-2.393 1.599-1.598 1.8-2.268 2.393-4.865.788-3.466 1.983-8.703 7.636-14.354 5.654-5.653 10.884-6.842 14.35-7.63.913-.208 1.589-.368 2.15-.557l4.961 4.962c-2.03 1.473-3.812 1.887-5.926 2.367-3.17.724-6.765 1.541-11.018 5.794-4.254 4.257-5.074 7.851-5.798 11.022-.634 2.777-1.134 4.968-4.084 7.922-2.953 2.953-5.144 3.453-7.924 4.087-3.175.727-6.769 1.547-11.029 5.804-4.257 4.257-5.08 7.854-5.804 11.025-.484 2.121-.9 3.905-2.38 5.942l-4.958-4.962c.192-.567.352-1.246.563-2.171zm-5.768 6.028l7.245 7.248c-1.105 3.812-1.915 7.714-2.393 11.676-10.743-3.341-16.557-7.114-16.557-10.369 0-2.027 3.181-5.25 11.705-8.555zm81.186 40.587c-57.554 0-92.89-11.195-92.89-19.219v-3.107c15.003 10.484 54.126 15.919 92.89 15.919s77.887-5.435 92.891-15.919v3.107c0 8.024-35.337 19.219-92.891 19.219z"/>
        <path fill="#000" d="M163.359 156.953c8.831 0 16.016-7.184 16.016-16.015 0-8.832-7.185-16.016-16.016-16.016s-16.015 7.184-16.015 16.016c0 8.831 7.184 16.015 16.015 16.015zm0-25.625c5.298 0 9.61 4.312 9.61 9.61 0 5.297-4.312 9.609-9.61 9.609-5.298 0-9.609-4.312-9.609-9.609 0-5.298 4.311-9.61 9.609-9.61zM60.86 163.359h6.406v6.407h-6.407v-6.407zM73.672 150.547h6.406v6.406h-6.406v-6.406zM86.484 124.922h6.407v6.406h-6.407v-6.406zM102.5 128.125h6.406v6.406H102.5v-6.406zM92.89 147.344h6.407v6.406H92.89v-6.406zM92.89 169.766h6.407v6.406H92.89v-6.406zM73.672 169.766h6.406v6.406h-6.406v-6.406z"/>
    </g>
</svg>
