<svg width="36" height="1265" fill="none" xmlns="http://www.w3.org/2000/svg">
    <path fill-rule="evenodd" clip-rule="evenodd" d="M22 35.554C30.016 33.735 36 26.566 36 18c0-9.941-8.059-18-18-18S0 8.059 0 18c0 8.566 5.984 15.735 14 17.554v197.892C5.984 235.265 0 242.434 0 251c0 8.566 5.984 15.735 14 17.554v252.892C5.984 523.265 0 530.434 0 539c0 8.566 5.984 15.735 14 17.554v197.892C5.984 756.265 0 763.434 0 772c0 8.566 5.984 15.735 14 17.554v252.896c-8.016 1.82-14 8.98-14 17.55s5.984 15.73 14 17.55V1265h8v-187.45c8.016-1.82 14-8.98 14-17.55s-5.984-15.73-14-17.55V789.554c8.016-1.819 14-8.988 14-17.554 0-8.566-5.984-15.735-14-17.554V556.554c8.016-1.819 14-8.988 14-17.554 0-8.566-5.984-15.735-14-17.554V268.554c8.016-1.819 14-8.988 14-17.554 0-8.566-5.984-15.735-14-17.554V35.554z" fill="url(#a)"/>
    <defs>
        <linearGradient id="a" x1="18" y1="0" x2="18" y2="1265" gradientUnits="userSpaceOnUse">
            <stop stop-color="#fff"/>
            <stop offset="1" stop-color="#fff" stop-opacity="0"/>
        </linearGradient>
    </defs>
</svg>
