<svg xmlns="http://www.w3.org/2000/svg" width="205" height="205" fill="none" viewBox="0 0 205 205">
    <g opacity=".8">
        <path fill="#5DDEF5" d="M118.471 117.733v5.014l-20.905 4.586c-9 1.974-15.414 9.947-15.414 19.162v38.486h94.492v-38.474c0-9.221-6.421-17.197-15.428-19.166l-21.012-4.594v-5.049"/>
        <path fill="#fff" d="M140.204 122.747l-10.866 29.06-10.867-29.06h21.733z"/>
        <path fill="#AFABB0" d="M129.398 58.83c-12.712 0-23.018 10.304-23.018 23.016v5.541h11.254c7.481 0 14.578-3.312 19.383-9.046l15.398 9.046v-5.54c0-12.713-10.305-23.018-23.017-23.018z"/>
        <path fill="#FED2A4" d="M132.06 82.864c-4.194 2.912-9.215 4.523-14.425 4.523h-11.254v9.777c0 12.712 10.305 23.017 23.017 23.017s23.017-10.305 23.017-23.017v-9.777l-7.698-4.523-7.699-4.523-4.958 4.523z"/>
        <path fill="#FFBE52" d="M200.996 184.98H4.004v16.016h196.992V184.98z"/>
        <path fill="#93E7F8" d="M37.054 70.104c18.253 0 33.05-14.797 33.05-33.05 0-18.253-14.797-33.05-33.05-33.05-18.253 0-33.05 14.797-33.05 33.05 0 18.253 14.797 33.05 33.05 33.05z"/>
        <path fill="#C7C4C8" d="M90.488 90.889H4.004v64.062h86.484V90.889z"/>
        <path fill="#5DDEF5" d="M55.254 170.566H39.238v-39.638c0-4.423 3.585-8.008 8.008-8.008 4.423 0 8.008 3.585 8.008 8.008v39.638zM68.066 184.98h-41.64v-6.005c0-4.644 3.764-8.409 8.408-8.409h24.824c4.644 0 8.408 3.765 8.408 8.409v6.005z"/>
        <path fill="#fff" d="M200.996 168.965h-51.25v16.015h51.25v-16.015z"/>
        <path fill="#E8E7E9" d="M200.996 152.949h-51.25v16.016h51.25v-16.016z"/>
        <path fill="#fff" d="M200.996 136.934h-51.25v16.015h51.25v-16.015z"/>
        <path fill="#000" d="M37.054 74.108c20.432 0 37.054-16.622 37.054-37.054C74.108 16.623 57.486 0 37.054 0 16.623 0 0 16.623 0 37.054c0 20.432 16.623 37.054 37.054 37.054zm0-66.1c16.016 0 29.046 13.03 29.046 29.046S53.07 66.1 37.054 66.1 8.008 53.07 8.008 37.054 21.038 8.008 37.054 8.008z"/>
        <path fill="#000" d="M40.24 45.855c.781.779 1.804 1.168 2.826 1.168 1.027 0 2.054-.392 2.836-1.177 1.561-1.566 1.557-4.102-.009-5.663l-4.808-4.792V17.617c0-2.21-1.793-4.004-4.004-4.004-2.21 0-4.004 1.793-4.004 4.004v19.437c0 1.064.425 2.085 1.178 2.836l5.985 5.965zM200.996 132.93h-24.643c-3.387-4.819-8.477-8.231-14.282-9.501l-17.603-3.849c7.204-4.858 11.951-13.093 11.951-22.417V81.846c0-14.9-12.122-27.02-27.021-27.02-14.9 0-27.021 12.12-27.021 27.02v15.317c0 9.312 4.735 17.539 11.923 22.399l-17.592 3.86c-.751.165-1.49.367-2.216.601V90.889c0-2.211-1.793-4.004-4.004-4.004H63.262c-2.211 0-4.004 1.793-4.004 4.004 0 2.21 1.793 4.004 4.004 4.004h23.222v56.054H59.258v-20.019c0-6.623-5.389-12.012-12.012-12.012s-12.012 5.389-12.012 12.012v20.019H8.008V94.893H31.23c2.21 0 4.003-1.793 4.003-4.004 0-2.211-1.793-4.004-4.004-4.004H4.005C1.793 86.885 0 88.678 0 90.889v64.062c0 2.211 1.793 4.004 4.004 4.004h31.23v7.608h-.4c-6.844 0-12.412 5.567-12.412 12.412v2.002H4.004c-2.211 0-4.004 1.793-4.004 4.004v16.015C0 203.207 1.793 205 4.004 205h196.992c2.211 0 4.004-1.793 4.004-4.004v-64.062c0-2.211-1.793-4.004-4.004-4.004zm-24.352 48.047H153.75v-8.008h43.242v8.008h-20.348zm20.348-16.016H153.75v-8.008h43.242v8.008zm0-16.016H153.75v-8.007h20.369l.036.002.038-.002h22.799v8.007zm-86.608-67.099c0-10.484 8.53-19.013 19.013-19.013 9.983 0 18.194 7.734 18.956 17.524l-9.308-5.468c-1.686-.99-3.841-.618-5.097.88-4.054 4.84-10 7.615-16.313 7.615h-7.25v-1.538h-.001zm0 9.545h7.251c7.537 0 14.694-2.874 20.101-7.984l10.675 6.272v7.485c0 10.484-8.53 19.013-19.013 19.013-10.484 0-19.013-8.53-19.013-19.013V91.39h-.001zm25.286 32.051l-6.332 16.934-6.344-16.965c2.054.502 4.197.773 6.403.773 2.16 0 4.259-.261 6.273-.742zm-45.182 35.513c2.211 0 4.004-1.793 4.004-4.004V132.68c1.235-.651 2.552-1.134 3.932-1.436l17.513-3.842 9.651 25.808c.585 1.564 2.079 2.601 3.75 2.601 1.67 0 3.165-1.037 3.75-2.602l9.651-25.809 17.621 3.853c1.547.337 3.015.91 4.366 1.676h-14.98c-2.211 0-4.004 1.793-4.004 4.004V180.976H86.156v-22.021h4.332zm-12.34 0v22.022H72.07v-2.002c0-6.845-5.567-12.412-12.412-12.412h-.4v-7.608h18.89zm-34.906-28.027c0-2.208 1.796-4.004 4.004-4.004 2.208 0 4.004 1.796 4.004 4.004v35.635h-8.008v-35.635zM30.43 178.975c0-2.429 1.976-4.405 4.404-4.405H59.658c2.429 0 4.404 1.976 4.404 4.405v2.002H30.43v-2.002zm166.562 18.017H8.008v-8.008h188.984v8.008z"/>
        <path fill="#000" d="M44.415 88.058c-.744.745-1.173 1.778-1.173 2.83 0 1.054.428 2.087 1.173 2.831.745.745 1.778 1.174 2.831 1.174s2.086-.429 2.83-1.174c.746-.744 1.174-1.777 1.174-2.83 0-1.053-.428-2.086-1.173-2.831-.745-.745-1.778-1.173-2.83-1.173-1.054 0-2.087.428-2.832 1.173z"/>
    </g>
</svg>
