<svg xmlns="http://www.w3.org/2000/svg" width="205" height="205" fill="none" viewBox="0 0 205 205">
    <g clip-path="url(#clip0)" opacity=".8">
        <path fill="#0078C8" d="M192.683 60.178c-.027 0-.053-.004-.08-.004h-93.62V201.1c.57 0 1.085-.315 1.374-.806 1.739-2.965 4.958-4.955 8.643-4.955h83.603c.027 0 .053-.003.08-.004V60.178z"/>
        <path fill="#0268B4" d="M192.603 60.174h-17.234c1.279 0 2.317 1.037 2.317 2.317v130.532c0 1.279-1.037 2.316-2.317 2.316h17.234c1.279 0 2.317-1.037 2.317-2.316V62.491c0-1.28-1.038-2.317-2.317-2.317z"/>
        <path fill="#D5E3F4" d="M178.7 52.514h-73.926c-3.198 0-5.79 2.592-5.79 5.79V182.9h.938c1.034-1.585 2.819-2.635 4.852-2.635H178.7V52.514z"/>
        <path fill="#0268B4" d="M98.983 201.1V60.174H5.364c-1.28 0-2.317 1.037-2.317 2.317v130.531c0 1.279 1.037 2.317 2.317 2.317h83.603c3.685 0 6.904 1.99 8.643 4.954.288.492.803.807 1.373.807z"/>
        <path fill="#F47C7C" d="M160.955 168.208h-40.747c-1.738 0-3.146-1.408-3.146-3.146v-30.56c0-1.738 1.408-3.146 3.146-3.146h40.747c1.738 0 3.146 1.408 3.146 3.146v30.56c.001 1.738-1.408 3.146-3.146 3.146z"/>
        <path fill="#B3DAFE" d="M98.044 182.899h.94V58.305c0-3.199-2.593-5.791-5.792-5.791H18.49c-1.493 0-2.703 1.21-2.703 2.702v122.345c0 1.493 1.21 2.703 2.703 2.703h74.703c2.033 0 3.818 1.05 4.851 2.635z"/>
        <path fill="#E5EEF9" d="M63.218 118.697v22.471l13.346-9.398c1.27-.896 1.27-2.78 0-3.675l-13.346-9.398z"/>
        <path fill="#B3DAFE" d="M179.477 52.514H165.69c1.493 0 2.703 1.21 2.703 2.702v122.345c0 1.493-1.21 2.703-2.703 2.703h13.787c1.493 0 2.703-1.21 2.703-2.703V55.216c0-1.492-1.21-2.702-2.703-2.702z"/>
        <path fill="#FDB97E" d="M146.303 84.041h22.643c1.475-4.392 3.92-8.394 7.151-11.715 4.753-4.886 7.585-11.65 7.27-19.076-.565-13.305-11.423-24.116-24.73-24.625-14.691-.563-26.778 11.18-26.778 25.746 0 6.985 2.782 13.317 7.296 17.957 3.23 3.32 5.673 7.321 7.148 11.711v.002z"/>
        <path fill="#678D98" d="M146.303 84.041h22.643v9.272c0 6.253-5.069 11.321-11.321 11.321-6.253 0-11.322-5.068-11.322-11.321v-9.272z"/>
        <path fill="#FEA95C" d="M183.367 53.25c-.565-13.305-11.423-24.115-24.73-24.625-2.336-.09-4.604.135-6.77.63 11.07 2.542 19.514 12.304 20.01 23.995.316 7.426-2.516 14.19-7.27 19.076-3.23 3.321-5.675 7.323-7.151 11.715h11.49c1.475-4.392 3.92-8.394 7.151-11.715 4.753-4.886 7.585-11.65 7.27-19.076z"/>
        <path fill="#537983" d="M157.456 84.041v9.272c0 4.155-2.239 7.785-5.576 9.754 1.684.995 3.647 1.567 5.745 1.567 6.252 0 11.321-5.068 11.321-11.321v-9.272h-11.49z"/>
        <path fill="#F9C6C6" d="M63.218 118.697v22.471l13.346-9.398c1.27-.896 1.27-2.78 0-3.675l-13.346-9.398z"/>
        <path fill="#F9B1B1" d="M76.563 131.77c1.271-.896 1.271-2.78 0-3.675l-13.346-9.398v10.34l8.614 6.065 4.732-3.332z"/>
        <path fill="#E94444" d="M6.643 118.68c-1.986 0-3.596 1.61-3.596 3.596v10.357c0-1.985 1.61-3.595 3.596-3.595h14.33V118.68H6.642z"/>
        <path fill="#D83131" d="M20.972 120.995h42.246v20.173H20.972v-20.173z"/>
        <path fill="#F47C7C" d="M3.047 124.59v12.983c0 1.986 1.61 3.595 3.596 3.595h14.33v-20.173H6.642c-1.986 0-3.596 1.61-3.596 3.595z"/>
        <path fill="#CA2C2C" d="M20.972 118.697h42.246v10.34H20.972v-10.34z"/>
        <path fill="#EE6161" d="M3.047 122.292v10.341c0-1.985 1.61-3.595 3.596-3.595h14.33v-10.341H6.642c-1.986 0-3.596 1.61-3.596 3.595z"/>
        <path fill="#000" d="M116.388 120.066h48.387c1.862 0 3.371-1.509 3.371-3.371 0-1.861-1.509-3.37-3.371-3.37h-48.387c-1.862 0-3.371 1.509-3.371 3.37 0 1.862 1.509 3.371 3.371 3.371zM160.956 128.308h-40.749c-3.415 0-6.193 2.778-6.193 6.193v30.561c0 3.415 2.778 6.193 6.193 6.193h40.748c3.415 0 6.193-2.778 6.193-6.193v-30.561c.001-3.415-2.778-6.193-6.192-6.193zm.098 36.754c0 .054-.044.098-.098.098h-40.749c-.054 0-.098-.044-.098-.098v-30.561c0-.054.044-.098.098-.098h40.748c.054 0 .098.044.098.098v30.561h.001zM157.625 15.94c1.683 0 3.048-1.365 3.048-3.048v-8.98c0-1.682-1.365-3.047-3.048-3.047s-3.047 1.365-3.047 3.048v8.979c0 1.683 1.364 3.048 3.047 3.048zM134.399 21.024c.595.595 1.375.893 2.155.893.779 0 1.56-.298 2.154-.893 1.191-1.19 1.191-3.12 0-4.31l-6.348-6.349c-1.191-1.19-3.12-1.19-4.31 0-1.19 1.19-1.19 3.12 0 4.31l6.349 6.349zM178.696 21.917c.78 0 1.56-.298 2.155-.893l6.349-6.349c1.19-1.19 1.19-3.12 0-4.31-1.19-1.19-3.12-1.19-4.309 0l-6.35 6.35c-1.19 1.19-1.19 3.12 0 4.31.596.594 1.375.892 2.155.892zM201.953 33.574h-8.98c-1.683 0-3.047 1.364-3.047 3.047s1.364 3.048 3.047 3.048h8.98c1.683 0 3.047-1.365 3.047-3.048s-1.364-3.047-3.047-3.047zM113.297 39.669h8.979c1.683 0 3.048-1.365 3.048-3.048s-1.365-3.047-3.048-3.047h-8.979c-1.683 0-3.047 1.364-3.047 3.047s1.364 3.048 3.047 3.048zM33.192 74.204H81.58c1.861 0 3.37-1.51 3.37-3.37 0-1.862-1.509-3.372-3.37-3.372H33.192c-1.862 0-3.37 1.51-3.37 3.371-.001 1.862 1.508 3.37 3.37 3.37zM33.192 89.492H81.58c1.861 0 3.37-1.51 3.37-3.371s-1.509-3.37-3.37-3.37H33.192c-1.862 0-3.37 1.509-3.37 3.37-.001 1.861 1.508 3.37 3.37 3.37zM84.95 101.408c0-1.861-1.509-3.37-3.37-3.37H33.192c-1.862 0-3.37 1.509-3.37 3.37 0 1.862 1.508 3.371 3.37 3.371H81.58c1.861 0 3.37-1.509 3.37-3.371zM33.192 162.107H81.58c1.861 0 3.37-1.509 3.37-3.371s-1.509-3.371-3.37-3.371H33.192c-1.862 0-3.37 1.509-3.37 3.371-.001 1.862 1.508 3.371 3.37 3.371z"/>
        <path fill="#000" d="M190.056 57.127h-3.749c.086-.911.131-1.83.131-2.755 0-5.6-1.628-10.974-4.595-15.563-.914-1.413-2.8-1.818-4.214-.905-1.413.914-1.818 2.8-.905 4.214 3.959 6.124 4.515 13.895 2.551 19.133-1.26 5.037-5.956 9.57-6.361 10.026l-.165.185c-2.501 2.85-4.509 6.111-5.917 9.531h-18.416c-1.584-3.85-3.984-7.611-7.077-10.79-4.148-4.263-6.433-9.886-6.433-15.831 0-12.458 10.138-22.719 22.718-22.719.298 0 .596.006.896.017 3.109.119 6.11.869 8.917 2.23 1.516.733 3.338.1 4.072-1.415.734-1.515.1-3.337-1.414-4.071-3.57-1.73-7.386-2.683-11.343-2.834-14.704-.556-27.115 9.973-29.515 23.886h-24.463c-2.214 0-4.238.82-5.79 2.17-1.553-1.35-3.578-2.17-5.791-2.17H18.49c-3.17 0-5.75 2.58-5.75 5.75v1.91H7.911C3.55 57.127 0 60.676 0 65.038V147.1c0 1.683 1.364 3.048 3.047 3.048s3.048-1.365 3.048-3.048v-2.909c.18.015.364.023.548.023h6.097c0 36.025-.052 33.681.117 34.503.537 2.618 2.859 4.593 5.633 4.593h74.703c1.71 0 2.205 1.273 2.743 1.788v9.216c-2.058-1.298-4.47-2.024-6.969-2.024H7.912c-1.001 0-1.816-.815-1.816-1.816v-29.152c0-1.683-1.365-3.048-3.048-3.048S0 159.64 0 161.323v29.152c0 4.362 3.549 7.911 7.911 7.911h81.056c2.462 0 4.766 1.322 6.014 3.449 1.82 3.102 6.226 3.031 8.004 0 1.249-2.127 3.554-3.449 6.015-3.449h81.056c4.362 0 7.911-3.549 7.911-7.911V65.038c0-4.362-3.549-7.911-7.911-7.911zm-32.431 44.459c-4.563 0-8.274-3.711-8.274-8.273v-6.225h16.547v6.225c0 4.562-3.712 8.273-8.273 8.273zm-52.851-46.025h24.062c.167 4.134 1.264 8.28 3.118 11.901h-15.566c-1.862 0-3.371 1.51-3.371 3.37 0 1.863 1.509 3.372 3.371 3.372h20.351c2.557 2.69 4.277 5.086 5.791 8.546h-26.142c-1.862 0-3.371 1.509-3.371 3.37 0 1.862 1.509 3.371 3.371 3.371h26.868v3.822c0 1.655.285 3.244.802 4.724h-27.67c-1.862 0-3.371 1.51-3.371 3.371s1.509 3.371 3.371 3.371l32.444-.114c2.432 1.888 5.482 3.016 8.793 3.016 7.923 0 14.368-6.445 14.368-14.368V84.58c2.251-6.344 5.865-9.614 7.139-11.044v103.68h-74.358l-.017.001c-.937.002-1.962.184-2.726.434V58.305c0-1.513 1.231-2.744 2.743-2.744zm-98.68 9.477c0-1.001.816-1.816 1.817-1.816h4.829v52.427H6.643c-.184 0-.367.008-.548.022V65.038zm.549 73.082c-.302 0-.548-.246-.548-.548v-15.28c0-.303.246-.548.548-.548h11.282v16.376H6.643zm14.33 6.095h42.245c.58 0 1.217-.183 1.738-.546l.017-.01 13.345-9.398c1.407-.991 2.247-2.609 2.247-4.329 0-1.721-.84-3.339-2.247-4.329l-13.345-9.398-.018-.011c-.447-.311-.998-.511-1.6-.538-.045-.002-.09-.007-.137-.007H18.835V55.561h74.358c1.513 0 2.743 1.23 2.743 2.743v119.347c-.787-.256-1.807-.432-2.725-.434l-.018-.001H18.835v-33.001h2.137zm39.197-6.095H24.02v-16.376h36.15v16.376zm13.71-8.188l-7.614 5.363V124.57l7.614 5.362zm117.992 60.543c0 1.002-.815 1.816-1.816 1.816H109c-2.499 0-4.911.726-6.969 2.025V185.1c.555-.532 1.017-1.788 2.743-1.788h74.703c3.171 0 5.75-2.58 5.75-5.75V63.222h4.829c1.002 0 1.816.814 1.816 1.816v125.437z"/>
    </g>
    <defs>
        <clipPath id="clip0">
            <path fill="#fff" d="M0 0H205V205H0z"/>
        </clipPath>
    </defs>
</svg>
