<svg xmlns="http://www.w3.org/2000/svg" width="205" height="205" fill="none" viewBox="0 0 205 205">
    <g clip-path="url(#clip0)" opacity=".8">
        <path fill="#E17F85" d="M198.44 87.33c.469-34.624-22.941-65.256-56.251-73.81-32.759-8.412-67.485 6.484-84.105 36.202L198.44 87.33z"/>
        <path fill="#DE646E" d="M142.188 13.52c-8.127-2.087-16.376-2.738-24.439-2.085 4.147.337 8.303 1.025 12.428 2.085 32.271 8.287 55.251 37.297 56.225 70.585l12.037 3.226c.47-34.626-22.941-65.258-56.251-73.811z"/>
        <path fill="#FFE07D" d="M152.718 90.448l-1.064-15.654 46.785 12.536-8.749 13.025c-.954 1.421-2.706 2.078-4.36 1.634l-29.654-7.945c-1.653-.444-2.842-1.889-2.958-3.596z"/>
        <path fill="#FFD064" d="M176.963 97.94c-.41.61-.967 1.077-1.6 1.379l9.968 2.671c1.653.443 3.405-.214 4.359-1.635l8.749-13.025-12.037-3.225-9.439 13.834z"/>
        <path fill="#E17F85" d="M105.933 77.912l-1.065-15.654 46.786 12.536-8.748 13.025c-.955 1.42-2.707 2.078-4.36 1.635l-29.655-7.946c-1.653-.443-2.842-1.888-2.958-3.596z"/>
        <path fill="#FFE07D" d="M59.148 65.376l-1.065-15.654 46.786 12.536-8.749 13.025c-.955 1.42-2.707 2.078-4.36 1.634l-29.654-7.945c-1.653-.443-2.842-1.888-2.959-3.596zM154.026 40.397c-.313-8.866-1.31-16.867-2.578-23.836-2.988-1.204-6.078-2.224-9.259-3.041-1.97-.506-3.947-.925-5.926-1.264-5.151 5.14-10.974 11.8-16.544 20.147-7.381 11.063-11.959 21.558-14.85 29.855l18.775 5.03 28.011 7.506c1.648-9.462 2.84-21.11 2.371-34.397z"/>
        <path fill="#FFD064" d="M136.263 12.255c-.751.75-1.518 1.536-2.295 2.35 6.674 2.098 12.909 5.092 18.583 8.833-.332-2.39-.704-4.685-1.103-6.878-2.337-.94-4.718-1.757-7.14-2.459-2.639-.764-5.344-1.383-8.045-1.846z"/>
        <path fill="#C6855B" d="M31.015 201.997c-.832 0-1.678-.174-2.485-.541-3.018-1.374-4.352-4.935-2.978-7.954l12.012-26.394c1.374-3.019 4.935-4.353 7.954-2.979 3.019 1.374 4.352 4.935 2.978 7.954l-12.011 26.395c-1.007 2.212-3.189 3.519-5.47 3.519zM154.67 201.997c.832 0 1.677-.174 2.484-.541 3.019-1.374 4.353-4.935 2.979-7.954l-12.012-26.394c-1.374-3.019-4.935-4.353-7.954-2.979-3.019 1.374-4.353 4.935-2.979 7.954l12.012 26.395c1.007 2.212 3.188 3.519 5.47 3.519z"/>
        <path fill="#80B4FB" d="M21.807 175.603h118.045c3.199 0 6.268-1.277 8.522-3.548l42.18-42.473c.628-.632.373-1.704-.472-1.986l-9.192-3.063c-7.051-2.351-14.825-.474-20.028 4.834l-21.165 21.597c-1.511 1.543-3.581 2.409-5.741 2.403l-95.856-.26c-9.652-.032-17.494 7.784-17.494 17.436v3.858c0 .664.537 1.202 1.2 1.202z"/>
        <path fill="#61A2F9" d="M190.082 127.597l-9.192-3.064c-.866-.289-1.744-.513-2.626-.676l-41.901 42.193c-2.255 2.27-5.323 3.547-8.523 3.547H20.632c-.017.314-.026.629-.026.947v3.858c0 .663.537 1.201 1.2 1.201h118.046c3.199 0 6.268-1.277 8.522-3.548l42.18-42.472c.628-.633.373-1.704-.472-1.986z"/>
        <path fill="#000" d="M184.978 38.32c-1.017-1.311-2.903-1.55-4.213-.533-1.311 1.016-1.549 2.903-.533 4.213 9.226 11.895 14.535 26.466 15.15 41.402l-40.323-10.804c1.684-10.686 2.347-21.54 1.967-32.307-.22-6.233-.796-12.498-1.71-18.695 5.666 2.81 10.97 6.37 15.717 10.579 1.241 1.1 3.139.985 4.239-.255 1.1-1.241.986-3.14-.255-4.239-7.844-6.955-17.024-12.196-26.924-15.538l2.901-8.13c.558-1.561-.257-3.28-1.818-3.837-1.562-.557-3.28.257-3.837 1.819l-3.022 8.465c-33.992-8.434-69.615 7.021-86.827 37.75-.232.43-.45.98-.403 1.716l1.064 15.654c.204 2.989 2.284 5.518 5.178 6.293l29.654 7.946c2.848.764 5.953-.359 7.63-2.861l3.855-5.74.469 6.898c.203 2.989 2.284 5.518 5.177 6.293l11.926 3.196-16.793 62.672-28.09-.082h-.009c-1.654 0-2.997 1.339-3.002 2.995-.005 1.658 1.335 3.007 2.994 3.011l58.809.17h.029c2.94 0 5.806-1.203 7.864-3.304l21.165-21.596c4.368-4.457 11.014-6.063 16.934-4.088l6.436 2.145-40.134 40.411c-1.678 1.691-4.008 2.661-6.391 2.661H23.609c-.304-4.564.96-9.006 4.244-12.279 2.726-2.716 6.342-4.21 10.186-4.21h.05l23.035.084h.01c1.654 0 2.997-1.338 3.004-2.992.006-1.659-1.334-3.008-2.992-3.014l-23.036-.084c-5.484-.021-10.62 2.099-14.497 5.962-4.882 4.867-6.01 11.543-6.01 18.335 0 2.318 1.886 4.204 4.204 4.204h7.222l-6.212 13.652c-1.005 2.208-1.039 4.613-.287 6.736H6.555c-1.658 0-3.003 1.344-3.003 3.003S4.897 205 6.555 205h184.789c1.658 0 3.003-1.344 3.003-3.003s-1.345-3.003-3.003-3.003h-28.192c.753-2.123.719-4.529-.286-6.737l-9.527-20.939 39.346-39.62c2.178-2.159 1.23-6.015-1.654-6.95l-9.191-3.064c-8.083-2.693-17.159-.503-23.122 5.582l-21.165 21.597c-.936.955-2.239 1.502-3.575 1.502h-.013l-24.506-.071 16.381-61.136 11.928 3.196c2.847.765 5.953-.358 7.63-2.861l3.855-5.739.469 6.898c.203 2.988 2.284 5.517 5.177 6.293l29.654 7.945c2.848.764 5.953-.358 7.631-2.861l8.748-13.024c.258-.418.511-.951.51-1.687.227-17.618-5.619-35.017-16.464-48.999zM31.015 198.993c-.43 0-.848-.091-1.242-.27-1.507-.686-2.176-2.471-1.49-3.979l7.345-16.14h6.602l-8.478 18.629c-.487 1.07-1.56 1.76-2.737 1.76zm59.18 0H39.549l9.279-20.388h46.83l-5.463 20.388zm6.218 0l5.462-20.388h34.981l9.279 20.388H96.413zm60.987-4.249c.685 1.508.018 3.293-1.496 3.981-.388.178-.803.268-1.232.268-1.177 0-2.253-.692-2.741-1.76l-8.661-19.032c1.964-.464 3.829-1.318 5.461-2.51l8.669 19.053zM93.627 73.608c-.238.355-.676.52-1.09.409L62.883 66.07c-.413-.11-.71-.472-.74-.899l-.779-11.462 38.669 10.361-6.406 9.537zm9.355-14.965L62.691 47.848C77.234 24.821 103.395 12.088 130 14.461c-4.669 5.094-8.957 10.546-12.779 16.275-5.804 8.699-10.585 18.076-14.239 27.908zm37.431 27.501c-.239.356-.677.52-1.091.409l-29.654-7.946c-.413-.11-.71-.472-.739-.899l-.779-11.462 38.668 10.361-6.405 9.537zm8.811-15.11l-40.413-10.829c3.466-9.201 7.965-17.98 13.406-26.135 4.421-6.626 9.494-12.864 15.079-18.575 3.902.758 7.759 1.855 11.484 3.262 1.23 7.18 1.988 14.486 2.245 21.746.358 10.173-.249 20.427-1.801 30.53zm37.974 27.646c-.239.355-.677.52-1.091.41l-29.654-7.947c-.413-.11-.71-.472-.739-.898l-.779-11.462 38.668 10.36-6.405 9.537z"/>
    </g>
    <defs>
        <clipPath id="clip0">
            <path fill="#fff" d="M0 0H205V205H0z"/>
        </clipPath>
    </defs>
</svg>
